# MagicaVoxel @ Ephtracy

# group
o 

# material
mtllib GGJ_Farm.mtl
usemtl palette

# normals
vn -1 0 0
vn 1 0 0
vn 0 0 1
vn 0 0 -1
vn 0 -1 0
vn 0 1 0

# texcoords
vt 0.943359 0.5
vt 0.947266 0.5
vt 0.974609 0.5
vt 0.978516 0.5
vt 0.982422 0.5

# verts
v -1.8 0.5 1.3
v -1.8 0.5 -1.1
v -1.8 0.7 1.3
v -1.8 0.7 -1.1
v -1.7 0 1.2
v -1.7 0 0.9
v -1.7 0 -0.7
v -1.7 0 -1
v -1.7 0.1 0.9
v -1.7 0.1 -0.7
v -1.7 0.5 1.2
v -1.7 0.5 0.9
v -1.7 0.5 -0.7
v -1.7 0.5 -1
v -1.7 0.7 1.2
v -1.7 0.7 0.9
v -1.7 0.7 -0.7
v -1.7 0.7 -1
v -1.7 0.9 1.2
v -1.7 0.9 0.9
v -1.7 0.9 -0.7
v -1.7 0.9 -1
v -1.7 1 1.2
v -1.7 1 0.9
v -1.7 1 -0.7
v -1.7 1 -1
v -1.2 0.1 0.4
v -1.2 0.1 0.1
v -1.2 0.2 0.4
v -1.2 0.2 0.1
v -0.9 0.1 0.3
v -0.9 0.1 1.19209e-07
v -0.9 0.2 0.3
v -0.9 0.2 1.19209e-07
v -0.8 0.1 0.8
v -0.8 0.1 0.6
v -0.8 0.2 0.8
v -0.8 0.2 0.6
v -0.5 0.1 0.7
v -0.5 0.1 0.5
v -0.5 0.1 0.1
v -0.5 0.1 1.19209e-07
v -0.5 0.1 -0.2
v -0.5 0.2 0.7
v -0.5 0.2 0.5
v -0.5 0.2 0.1
v -0.5 0.2 1.19209e-07
v -0.5 0.4 0.5
v -0.5 0.4 -0.2
v -0.4 0.1 -0.3
v -0.4 0.1 -0.6
v -0.4 0.2 -0.3
v -0.4 0.2 -0.5
v -0.4 0.3 -0.5
v -0.4 0.3 -0.6
v -0.4 0.4 0.4
v -0.4 0.4 -0.0999999
v -0.4 0.5 0.4
v -0.4 0.5 -0.0999999
v -0.3 0.5 0.2
v -0.3 0.5 0.1
v -0.3 0.6 0.2
v -0.3 0.6 0.1
v -0.2 0.1 0.9
v -0.2 0.1 0.5
v -0.2 0.2 0.9
v -0.2 0.2 0.5
v -0.1 0.1 -0.2
v -0.1 0.1 -0.5
v -0.1 0.2 -0.2
v -0.1 0.2 -0.5
v 0.0999999 0.1 0.8
v 0.0999999 0.1 0.7
v 0.0999999 0.2 0.8
v 0.0999999 0.2 0.7
v 0.3 0.1 1.19209e-07
v 0.3 0.1 -0.0999999
v 0.3 0.2 1.19209e-07
v 0.3 0.2 -0.0999999
v 0.4 0.1 0.2
v 0.4 0.1 1.19209e-07
v 0.4 0.2 0.2
v 0.4 0.2 1.19209e-07
v 0.8 0.1 1.2
v 0.8 0.1 0.9
v 0.8 0.1 -0.7
v 0.8 0.1 -1
v 0.8 0.5 1.2
v 0.8 0.5 -1
v 0.8 0.7 1.2
v 0.8 0.7 -1
v 0.8 0.9 1.2
v 0.8 0.9 0.9
v 0.8 0.9 -0.7
v 0.8 0.9 -1
v 0.8 1 1.2
v 0.8 1 0.9
v 0.8 1 -0.7
v 0.8 1 -1
v 1.1 0.5 0.9
v 1.1 0.5 -0.7
v 1.1 0.7 0.9
v 1.1 0.7 -0.7
v -1.7 0.5 0.9
v -1.7 0.5 -0.7
v -1.7 0.7 0.9
v -1.7 0.7 -0.7
v -1.4 0.1 1.2
v -1.4 0.1 0.9
v -1.4 0.1 -0.7
v -1.4 0.1 -1
v -1.4 0.5 1.2
v -1.4 0.5 -1
v -1.4 0.7 1.2
v -1.4 0.7 -1
v -1.4 0.9 1.2
v -1.4 0.9 0.9
v -1.4 0.9 -0.7
v -1.4 0.9 -1
v -1.4 1 1.2
v -1.4 1 0.9
v -1.4 1 -0.7
v -1.4 1 -1
v -1.1 0.1 0.3
v -1.1 0.1 0.2
v -1.1 0.2 0.3
v -1.1 0.2 0.2
v -1 0.1 0.2
v -1 0.1 0.1
v -1 0.2 0.2
v -1 0.2 0.1
v -0.8 0.1 0.4
v -0.8 0.1 0.1
v -0.8 0.2 0.4
v -0.8 0.2 0.1
v -0.7 0.1 0.7
v -0.7 0.1 0.6
v -0.7 0.2 0.7
v -0.7 0.2 0.6
v -0.4 0.1 0.8
v -0.4 0.1 0.5
v -0.4 0.2 0.8
v -0.4 0.2 0.5
v -0.3 0.1 -0.3
v -0.3 0.1 -0.5
v -0.3 0.2 -0.3
v -0.3 0.2 -0.5
v -0.1 0.1 0.8
v -0.1 0.1 0.5
v -0.1 0.2 0.8
v -0.1 0.2 0.5
v -1.19209e-07 0.1 -0.2
v -1.19209e-07 0.1 -0.6
v -1.19209e-07 0.2 -0.2
v -1.19209e-07 0.2 -0.5
v -1.19209e-07 0.3 -0.5
v -1.19209e-07 0.3 -0.6
v -1.19209e-07 0.5 0.2
v -1.19209e-07 0.5 0.1
v -1.19209e-07 0.6 0.2
v -1.19209e-07 0.6 0.1
v 0.0999999 0.4 0.4
v 0.0999999 0.4 -0.0999999
v 0.0999999 0.5 0.4
v 0.0999999 0.5 -0.0999999
v 0.2 0.1 0.9
v 0.2 0.1 0.7
v 0.2 0.1 0.5
v 0.2 0.1 0.3
v 0.2 0.1 0.2
v 0.2 0.1 -0.2
v 0.2 0.2 0.9
v 0.2 0.2 0.7
v 0.2 0.2 0.3
v 0.2 0.2 0.2
v 0.2 0.4 0.5
v 0.2 0.4 -0.2
v 0.5 0.1 0.3
v 0.5 0.1 -0.0999999
v 0.5 0.2 0.3
v 0.5 0.2 -0.0999999
v 1.1 0 1.2
v 1.1 0 0.9
v 1.1 0 -0.7
v 1.1 0 -1
v 1.1 0.1 0.9
v 1.1 0.1 -0.7
v 1.1 0.5 1.2
v 1.1 0.5 0.9
v 1.1 0.5 -0.7
v 1.1 0.5 -1
v 1.1 0.7 1.2
v 1.1 0.7 0.9
v 1.1 0.7 -0.7
v 1.1 0.7 -1
v 1.1 0.9 1.2
v 1.1 0.9 0.9
v 1.1 0.9 -0.7
v 1.1 0.9 -1
v 1.1 1 1.2
v 1.1 1 0.9
v 1.1 1 -0.7
v 1.1 1 -1
v 1.2 0.5 1.3
v 1.2 0.5 -1.1
v 1.2 0.7 1.3
v 1.2 0.7 -1.1
v -1.8 0.5 1.3
v -1.8 0.7 1.3
v 1.2 0.5 1.3
v 1.2 0.7 1.3
v -1.7 0 1.2
v -1.7 0.5 1.2
v -1.7 0.7 1.2
v -1.7 0.9 1.2
v -1.7 1 1.2
v -1.4 0 1.2
v -1.4 0.1 1.2
v -1.4 0.5 1.2
v -1.4 0.7 1.2
v -1.4 0.9 1.2
v -1.4 1 1.2
v 0.8 0 1.2
v 0.8 0.1 1.2
v 0.8 0.5 1.2
v 0.8 0.7 1.2
v 0.8 0.9 1.2
v 0.8 1 1.2
v 1.1 0 1.2
v 1.1 0.5 1.2
v 1.1 0.7 1.2
v 1.1 0.9 1.2
v 1.1 1 1.2
v -0.2 0.1 0.9
v -0.2 0.2 0.9
v 0.2 0.1 0.9
v 0.2 0.2 0.9
v -0.8 0.1 0.8
v -0.8 0.2 0.8
v -0.4 0.1 0.8
v -0.4 0.2 0.8
v -0.5 0.2 0.5
v -0.5 0.4 0.5
v -0.4 0.1 0.5
v -0.4 0.2 0.5
v -0.2 0.1 0.5
v -0.2 0.2 0.5
v -0.1 0.1 0.5
v -0.1 0.2 0.5
v 0.2 0.1 0.5
v 0.2 0.4 0.5
v -1.2 0.1 0.4
v -1.2 0.2 0.4
v -0.8 0.1 0.4
v -0.8 0.2 0.4
v -0.4 0.4 0.4
v -0.4 0.5 0.4
v 0.0999999 0.4 0.4
v 0.0999999 0.5 0.4
v 0.2 0.1 0.3
v 0.2 0.2 0.3
v 0.5 0.1 0.3
v 0.5 0.2 0.3
v -1.1 0.1 0.2
v -1.1 0.2 0.2
v -1 0.1 0.2
v -1 0.2 0.2
v -0.3 0.5 0.2
v -0.3 0.6 0.2
v -1.19209e-07 0.5 0.2
v -1.19209e-07 0.6 0.2
v -0.8 0.1 0.1
v -0.8 0.2 0.1
v -0.5 0.1 0.1
v -0.5 0.2 0.1
v 0.3 0.1 1.19209e-07
v 0.3 0.2 1.19209e-07
v 0.4 0.1 1.19209e-07
v 0.4 0.2 1.19209e-07
v -0.4 0.1 -0.3
v -0.4 0.2 -0.3
v -0.3 0.1 -0.3
v -0.3 0.2 -0.3
v -0.4 0.2 -0.5
v -0.4 0.3 -0.5
v -0.3 0.1 -0.5
v -0.3 0.2 -0.5
v -0.1 0.1 -0.5
v -0.1 0.2 -0.5
v -1.19209e-07 0.2 -0.5
v -1.19209e-07 0.3 -0.5
v -1.7 0.1 -0.7
v -1.7 0.5 -0.7
v -1.7 0.7 -0.7
v -1.7 0.9 -0.7
v -1.7 1 -0.7
v -1.4 0.1 -0.7
v -1.4 0.9 -0.7
v -1.4 1 -0.7
v 0.8 0.1 -0.7
v 0.8 0.9 -0.7
v 0.8 1 -0.7
v 1.1 0.1 -0.7
v 1.1 0.5 -0.7
v 1.1 0.7 -0.7
v 1.1 0.9 -0.7
v 1.1 1 -0.7
v -1.4 0.5 -1
v -1.4 0.7 -1
v 0.8 0.5 -1
v 0.8 0.7 -1
v -1.4 0.5 1.2
v -1.4 0.7 1.2
v 0.8 0.5 1.2
v 0.8 0.7 1.2
v -1.7 0.1 0.9
v -1.7 0.5 0.9
v -1.7 0.7 0.9
v -1.7 0.9 0.9
v -1.7 1 0.9
v -1.4 0.1 0.9
v -1.4 0.9 0.9
v -1.4 1 0.9
v 0.8 0.1 0.9
v 0.8 0.9 0.9
v 0.8 1 0.9
v 1.1 0.1 0.9
v 1.1 0.5 0.9
v 1.1 0.7 0.9
v 1.1 0.9 0.9
v 1.1 1 0.9
v -0.1 0.1 0.8
v -0.1 0.2 0.8
v 0.0999999 0.1 0.8
v 0.0999999 0.2 0.8
v -0.7 0.1 0.7
v -0.7 0.2 0.7
v -0.5 0.1 0.7
v -0.5 0.2 0.7
v 0.0999999 0.1 0.7
v 0.0999999 0.2 0.7
v 0.2 0.1 0.7
v 0.2 0.2 0.7
v -0.8 0.1 0.6
v -0.8 0.2 0.6
v -0.7 0.1 0.6
v -0.7 0.2 0.6
v -1.1 0.1 0.3
v -1.1 0.2 0.3
v -0.9 0.1 0.3
v -0.9 0.2 0.3
v 0.2 0.1 0.2
v 0.2 0.2 0.2
v 0.4 0.1 0.2
v 0.4 0.2 0.2
v -1.2 0.1 0.1
v -1.2 0.2 0.1
v -1 0.1 0.1
v -1 0.2 0.1
v -0.3 0.5 0.1
v -0.3 0.6 0.1
v -1.19209e-07 0.5 0.1
v -1.19209e-07 0.6 0.1
v -0.9 0.1 1.19209e-07
v -0.9 0.2 1.19209e-07
v -0.5 0.1 1.19209e-07
v -0.5 0.2 1.19209e-07
v -0.4 0.4 -0.0999999
v -0.4 0.5 -0.0999999
v 0.0999999 0.4 -0.0999999
v 0.0999999 0.5 -0.0999999
v 0.3 0.1 -0.0999999
v 0.3 0.2 -0.0999999
v 0.5 0.1 -0.0999999
v 0.5 0.2 -0.0999999
v -0.5 0.1 -0.2
v -0.5 0.4 -0.2
v -0.1 0.1 -0.2
v -0.1 0.2 -0.2
v -1.19209e-07 0.1 -0.2
v -1.19209e-07 0.2 -0.2
v 0.2 0.1 -0.2
v 0.2 0.4 -0.2
v -0.4 0.1 -0.6
v -0.4 0.3 -0.6
v -1.19209e-07 0.1 -0.6
v -1.19209e-07 0.3 -0.6
v -1.7 0 -1
v -1.7 0.5 -1
v -1.7 0.7 -1
v -1.7 0.9 -1
v -1.7 1 -1
v -1.4 0 -1
v -1.4 0.1 -1
v -1.4 0.5 -1
v -1.4 0.7 -1
v -1.4 0.9 -1
v -1.4 1 -1
v 0.8 0 -1
v 0.8 0.1 -1
v 0.8 0.5 -1
v 0.8 0.7 -1
v 0.8 0.9 -1
v 0.8 1 -1
v 1.1 0 -1
v 1.1 0.5 -1
v 1.1 0.7 -1
v 1.1 0.9 -1
v 1.1 1 -1
v -1.8 0.5 -1.1
v -1.8 0.7 -1.1
v 1.2 0.5 -1.1
v 1.2 0.7 -1.1
v -1.7 0 1.2
v -1.4 0 1.2
v 0.8 0 1.2
v 1.1 0 1.2
v -1.7 0 0.9
v -1.4 0 0.9
v 0.8 0 0.9
v 1.1 0 0.9
v -1.7 0 -0.7
v -1.4 0 -0.7
v 0.8 0 -0.7
v 1.1 0 -0.7
v -1.7 0 -1
v -1.4 0 -1
v 0.8 0 -1
v 1.1 0 -1
v -1.8 0.5 1.3
v 1.2 0.5 1.3
v -1.7 0.5 1.2
v -1.4 0.5 1.2
v 0.8 0.5 1.2
v 1.1 0.5 1.2
v -1.7 0.5 0.9
v 1.1 0.5 0.9
v -1.7 0.5 -0.7
v 1.1 0.5 -0.7
v -1.7 0.5 -1
v -1.4 0.5 -1
v 0.8 0.5 -1
v 1.1 0.5 -1
v -1.8 0.5 -1.1
v 1.2 0.5 -1.1
v -1.4 0.1 1.2
v 0.8 0.1 1.2
v -1.7 0.1 0.9
v -1.4 0.1 0.9
v -0.2 0.1 0.9
v 0.2 0.1 0.9
v 0.8 0.1 0.9
v 1.1 0.1 0.9
v -0.8 0.1 0.8
v -0.4 0.1 0.8
v -0.1 0.1 0.8
v 0.0999999 0.1 0.8
v -0.7 0.1 0.7
v -0.5 0.1 0.7
v 0.0999999 0.1 0.7
v 0.2 0.1 0.7
v -0.8 0.1 0.6
v -0.7 0.1 0.6
v -0.5 0.1 0.5
v -0.4 0.1 0.5
v -0.2 0.1 0.5
v -0.1 0.1 0.5
v 0.2 0.1 0.5
v -1.2 0.1 0.4
v -0.8 0.1 0.4
v -1.1 0.1 0.3
v -0.9 0.1 0.3
v 0.2 0.1 0.3
v 0.5 0.1 0.3
v -1.1 0.1 0.2
v -1 0.1 0.2
v 0.2 0.1 0.2
v 0.4 0.1 0.2
v -1.2 0.1 0.1
v -1 0.1 0.1
v -0.8 0.1 0.1
v -0.5 0.1 0.1
v -0.9 0.1 1.19209e-07
v -0.5 0.1 1.19209e-07
v 0.3 0.1 1.19209e-07
v 0.4 0.1 1.19209e-07
v 0.3 0.1 -0.0999999
v 0.5 0.1 -0.0999999
v -0.5 0.1 -0.2
v -0.1 0.1 -0.2
v -1.19209e-07 0.1 -0.2
v 0.2 0.1 -0.2
v -0.4 0.1 -0.3
v -0.3 0.1 -0.3
v -0.3 0.1 -0.5
v -0.1 0.1 -0.5
v -0.4 0.1 -0.6
v -1.19209e-07 0.1 -0.6
v -1.7 0.1 -0.7
v -1.4 0.1 -0.7
v 0.8 0.1 -0.7
v 1.1 0.1 -0.7
v -1.4 0.1 -1
v 0.8 0.1 -1
v -0.2 0.2 0.9
v 0.2 0.2 0.9
v -0.8 0.2 0.8
v -0.4 0.2 0.8
v -0.1 0.2 0.8
v 0.0999999 0.2 0.8
v -0.7 0.2 0.7
v -0.5 0.2 0.7
v 0.0999999 0.2 0.7
v 0.2 0.2 0.7
v -0.8 0.2 0.6
v -0.7 0.2 0.6
v -0.5 0.2 0.5
v -0.4 0.2 0.5
v -0.2 0.2 0.5
v -0.1 0.2 0.5
v -1.2 0.2 0.4
v -0.8 0.2 0.4
v -1.1 0.2 0.3
v -0.9 0.2 0.3
v 0.2 0.2 0.3
v 0.5 0.2 0.3
v -1.1 0.2 0.2
v -1 0.2 0.2
v 0.2 0.2 0.2
v 0.4 0.2 0.2
v -1.2 0.2 0.1
v -1 0.2 0.1
v -0.8 0.2 0.1
v -0.5 0.2 0.1
v -0.9 0.2 1.19209e-07
v -0.5 0.2 1.19209e-07
v 0.3 0.2 1.19209e-07
v 0.4 0.2 1.19209e-07
v 0.3 0.2 -0.0999999
v 0.5 0.2 -0.0999999
v -0.1 0.2 -0.2
v -1.19209e-07 0.2 -0.2
v -0.4 0.2 -0.3
v -0.3 0.2 -0.3
v -0.4 0.2 -0.5
v -0.3 0.2 -0.5
v -0.1 0.2 -0.5
v -1.19209e-07 0.2 -0.5
v -0.4 0.3 -0.5
v -1.19209e-07 0.3 -0.5
v -0.4 0.3 -0.6
v -1.19209e-07 0.3 -0.6
v -0.5 0.4 0.5
v 0.2 0.4 0.5
v -0.4 0.4 0.4
v 0.0999999 0.4 0.4
v -0.4 0.4 -0.0999999
v 0.0999999 0.4 -0.0999999
v -0.5 0.4 -0.2
v 0.2 0.4 -0.2
v -0.4 0.5 0.4
v 0.0999999 0.5 0.4
v -0.3 0.5 0.2
v -1.19209e-07 0.5 0.2
v -0.3 0.5 0.1
v -1.19209e-07 0.5 0.1
v -0.4 0.5 -0.0999999
v 0.0999999 0.5 -0.0999999
v -0.3 0.6 0.2
v -1.19209e-07 0.6 0.2
v -0.3 0.6 0.1
v -1.19209e-07 0.6 0.1
v -1.8 0.7 1.3
v 1.2 0.7 1.3
v -1.7 0.7 1.2
v -1.4 0.7 1.2
v 0.8 0.7 1.2
v 1.1 0.7 1.2
v -1.7 0.7 0.9
v 1.1 0.7 0.9
v -1.7 0.7 -0.7
v 1.1 0.7 -0.7
v -1.7 0.7 -1
v -1.4 0.7 -1
v 0.8 0.7 -1
v 1.1 0.7 -1
v -1.8 0.7 -1.1
v 1.2 0.7 -1.1
v -1.7 1 1.2
v -1.4 1 1.2
v 0.8 1 1.2
v 1.1 1 1.2
v -1.7 1 0.9
v -1.4 1 0.9
v 0.8 1 0.9
v 1.1 1 0.9
v -1.7 1 -0.7
v -1.4 1 -0.7
v 0.8 1 -0.7
v 1.1 1 -0.7
v -1.7 1 -1
v -1.4 1 -1
v 0.8 1 -1
v 1.1 1 -1

# faces
f 3/3/1 2/3/1 1/3/1
f 4/3/1 2/3/1 3/3/1
f 9/3/1 6/3/1 5/3/1
f 9/5/1 7/5/1 6/5/1
f 10/3/1 8/3/1 7/3/1
f 10/5/1 7/5/1 9/5/1
f 11/3/1 9/3/1 5/3/1
f 12/3/1 9/3/1 11/3/1
f 13/3/1 8/3/1 10/3/1
f 14/3/1 8/3/1 13/3/1
f 19/3/1 16/3/1 15/3/1
f 20/3/1 16/3/1 19/3/1
f 21/3/1 18/3/1 17/3/1
f 22/3/1 18/3/1 21/3/1
f 23/4/1 20/4/1 19/4/1
f 24/4/1 20/4/1 23/4/1
f 25/4/1 22/4/1 21/4/1
f 26/4/1 22/4/1 25/4/1
f 29/2/1 28/2/1 27/2/1
f 30/2/1 28/2/1 29/2/1
f 33/2/1 32/2/1 31/2/1
f 34/2/1 32/2/1 33/2/1
f 37/2/1 36/2/1 35/2/1
f 38/2/1 36/2/1 37/2/1
f 44/2/1 40/2/1 39/2/1
f 45/1/1 41/1/1 40/1/1
f 45/2/1 40/2/1 44/2/1
f 46/1/1 41/1/1 45/1/1
f 47/1/1 43/1/1 42/1/1
f 48/1/1 46/1/1 45/1/1
f 48/1/1 47/1/1 46/1/1
f 49/1/1 43/1/1 47/1/1
f 49/1/1 47/1/1 48/1/1
f 52/2/1 51/2/1 50/2/1
f 53/2/1 51/2/1 52/2/1
f 54/2/1 51/2/1 53/2/1
f 55/2/1 51/2/1 54/2/1
f 58/1/1 57/1/1 56/1/1
f 59/1/1 57/1/1 58/1/1
f 62/5/1 61/5/1 60/5/1
f 63/5/1 61/5/1 62/5/1
f 66/2/1 65/2/1 64/2/1
f 67/2/1 65/2/1 66/2/1
f 70/2/1 69/2/1 68/2/1
f 71/2/1 69/2/1 70/2/1
f 74/2/1 73/2/1 72/2/1
f 75/2/1 73/2/1 74/2/1
f 78/2/1 77/2/1 76/2/1
f 79/2/1 77/2/1 78/2/1
f 82/2/1 81/2/1 80/2/1
f 83/2/1 81/2/1 82/2/1
f 88/3/1 85/3/1 84/3/1
f 89/3/1 87/3/1 86/3/1
f 90/3/1 85/3/1 88/3/1
f 91/3/1 89/3/1 86/3/1
f 92/3/1 85/3/1 90/3/1
f 93/3/1 85/3/1 92/3/1
f 94/3/1 91/3/1 86/3/1
f 95/3/1 91/3/1 94/3/1
f 96/4/1 93/4/1 92/4/1
f 97/4/1 93/4/1 96/4/1
f 98/4/1 95/4/1 94/4/1
f 99/4/1 95/4/1 98/4/1
f 102/3/1 101/3/1 100/3/1
f 103/3/1 101/3/1 102/3/1
f 104/3/2 105/3/2 106/3/2
f 106/3/2 105/3/2 107/3/2
f 108/3/2 109/3/2 112/3/2
f 110/3/2 111/3/2 113/3/2
f 112/3/2 109/3/2 114/3/2
f 110/3/2 113/3/2 115/3/2
f 114/3/2 109/3/2 116/3/2
f 116/3/2 109/3/2 117/3/2
f 110/3/2 115/3/2 118/3/2
f 118/3/2 115/3/2 119/3/2
f 116/4/2 117/4/2 120/4/2
f 120/4/2 117/4/2 121/4/2
f 118/4/2 119/4/2 122/4/2
f 122/4/2 119/4/2 123/4/2
f 124/2/2 125/2/2 126/2/2
f 126/2/2 125/2/2 127/2/2
f 128/2/2 129/2/2 130/2/2
f 130/2/2 129/2/2 131/2/2
f 132/2/2 133/2/2 134/2/2
f 134/2/2 133/2/2 135/2/2
f 136/2/2 137/2/2 138/2/2
f 138/2/2 137/2/2 139/2/2
f 140/2/2 141/2/2 142/2/2
f 142/2/2 141/2/2 143/2/2
f 144/2/2 145/2/2 146/2/2
f 146/2/2 145/2/2 147/2/2
f 148/2/2 149/2/2 150/2/2
f 150/2/2 149/2/2 151/2/2
f 152/2/2 153/2/2 154/2/2
f 154/2/2 153/2/2 155/2/2
f 155/2/2 153/2/2 156/2/2
f 156/2/2 153/2/2 157/2/2
f 158/5/2 159/5/2 160/5/2
f 160/5/2 159/5/2 161/5/2
f 162/1/2 163/1/2 164/1/2
f 164/1/2 163/1/2 165/1/2
f 166/2/2 167/2/2 172/2/2
f 172/2/2 167/2/2 173/2/2
f 168/1/2 169/1/2 174/1/2
f 170/1/2 171/1/2 175/1/2
f 168/1/2 174/1/2 176/1/2
f 174/1/2 175/1/2 176/1/2
f 175/1/2 171/1/2 177/1/2
f 176/1/2 175/1/2 177/1/2
f 178/2/2 179/2/2 180/2/2
f 180/2/2 179/2/2 181/2/2
f 182/3/2 183/3/2 186/3/2
f 183/5/2 184/5/2 186/5/2
f 184/3/2 185/3/2 187/3/2
f 186/5/2 184/5/2 187/5/2
f 182/3/2 186/3/2 188/3/2
f 188/3/2 186/3/2 189/3/2
f 187/3/2 185/3/2 190/3/2
f 190/3/2 185/3/2 191/3/2
f 192/3/2 193/3/2 196/3/2
f 196/3/2 193/3/2 197/3/2
f 194/3/2 195/3/2 198/3/2
f 198/3/2 195/3/2 199/3/2
f 196/4/2 197/4/2 200/4/2
f 200/4/2 197/4/2 201/4/2
f 198/4/2 199/4/2 202/4/2
f 202/4/2 199/4/2 203/4/2
f 204/3/2 205/3/2 206/3/2
f 206/3/2 205/3/2 207/3/2
f 210/3/3 209/3/3 208/3/3
f 211/3/3 209/3/3 210/3/3
f 217/3/3 213/3/3 212/3/3
f 218/3/3 213/3/3 217/3/3
f 219/3/3 213/3/3 218/3/3
f 220/3/3 215/3/3 214/3/3
f 221/4/3 216/4/3 215/4/3
f 221/3/3 215/3/3 220/3/3
f 222/4/3 216/4/3 221/4/3
f 223/5/3 218/5/3 217/5/3
f 224/5/3 218/5/3 223/5/3
f 229/3/3 224/3/3 223/3/3
f 229/3/3 225/3/3 224/3/3
f 230/3/3 225/3/3 229/3/3
f 231/3/3 227/3/3 226/3/3
f 232/4/3 228/4/3 227/4/3
f 232/3/3 227/3/3 231/3/3
f 233/4/3 228/4/3 232/4/3
f 236/2/3 235/2/3 234/2/3
f 237/2/3 235/2/3 236/2/3
f 240/2/3 239/2/3 238/2/3
f 241/2/3 239/2/3 240/2/3
f 245/1/3 243/1/3 242/1/3
f 246/1/3 245/1/3 244/1/3
f 247/1/3 243/1/3 245/1/3
f 247/1/3 245/1/3 246/1/3
f 249/1/3 243/1/3 247/1/3
f 250/1/3 249/1/3 248/1/3
f 251/1/3 243/1/3 249/1/3
f 251/1/3 249/1/3 250/1/3
f 254/2/3 253/2/3 252/2/3
f 255/2/3 253/2/3 254/2/3
f 258/1/3 257/1/3 256/1/3
f 259/1/3 257/1/3 258/1/3
f 262/2/3 261/2/3 260/2/3
f 263/2/3 261/2/3 262/2/3
f 266/2/3 265/2/3 264/2/3
f 267/2/3 265/2/3 266/2/3
f 270/5/3 269/5/3 268/5/3
f 271/5/3 269/5/3 270/5/3
f 274/2/3 273/2/3 272/2/3
f 275/2/3 273/2/3 274/2/3
f 278/2/3 277/2/3 276/2/3
f 279/2/3 277/2/3 278/2/3
f 282/2/3 281/2/3 280/2/3
f 283/2/3 281/2/3 282/2/3
f 287/2/3 285/2/3 284/2/3
f 288/2/3 287/2/3 286/2/3
f 289/2/3 285/2/3 287/2/3
f 289/2/3 287/2/3 288/2/3
f 290/2/3 285/2/3 289/2/3
f 291/2/3 285/2/3 290/2/3
f 297/3/3 293/3/3 292/3/3
f 297/3/3 294/3/3 293/3/3
f 297/3/3 295/3/3 294/3/3
f 298/4/3 296/4/3 295/4/3
f 298/3/3 295/3/3 297/3/3
f 299/4/3 296/4/3 298/4/3
f 303/3/3 301/3/3 300/3/3
f 304/3/3 301/3/3 303/3/3
f 305/3/3 301/3/3 304/3/3
f 306/4/3 302/4/3 301/4/3
f 306/3/3 301/3/3 305/3/3
f 307/4/3 302/4/3 306/4/3
f 310/3/3 309/3/3 308/3/3
f 311/3/3 309/3/3 310/3/3
f 312/3/4 313/3/4 314/3/4
f 314/3/4 313/3/4 315/3/4
f 316/3/4 317/3/4 321/3/4
f 317/3/4 318/3/4 321/3/4
f 318/3/4 319/3/4 321/3/4
f 319/4/4 320/4/4 322/4/4
f 321/3/4 319/3/4 322/3/4
f 322/4/4 320/4/4 323/4/4
f 324/3/4 325/3/4 327/3/4
f 327/3/4 325/3/4 328/3/4
f 328/3/4 325/3/4 329/3/4
f 325/4/4 326/4/4 330/4/4
f 329/3/4 325/3/4 330/3/4
f 330/4/4 326/4/4 331/4/4
f 332/2/4 333/2/4 334/2/4
f 334/2/4 333/2/4 335/2/4
f 336/2/4 337/2/4 338/2/4
f 338/2/4 337/2/4 339/2/4
f 340/2/4 341/2/4 342/2/4
f 342/2/4 341/2/4 343/2/4
f 344/2/4 345/2/4 346/2/4
f 346/2/4 345/2/4 347/2/4
f 348/2/4 349/2/4 350/2/4
f 350/2/4 349/2/4 351/2/4
f 352/2/4 353/2/4 354/2/4
f 354/2/4 353/2/4 355/2/4
f 356/2/4 357/2/4 358/2/4
f 358/2/4 357/2/4 359/2/4
f 360/5/4 361/5/4 362/5/4
f 362/5/4 361/5/4 363/5/4
f 364/2/4 365/2/4 366/2/4
f 366/2/4 365/2/4 367/2/4
f 368/1/4 369/1/4 370/1/4
f 370/1/4 369/1/4 371/1/4
f 372/2/4 373/2/4 374/2/4
f 374/2/4 373/2/4 375/2/4
f 376/1/4 377/1/4 378/1/4
f 378/1/4 377/1/4 379/1/4
f 379/1/4 377/1/4 381/1/4
f 380/1/4 381/1/4 382/1/4
f 381/1/4 377/1/4 383/1/4
f 382/1/4 381/1/4 383/1/4
f 384/2/4 385/2/4 386/2/4
f 386/2/4 385/2/4 387/2/4
f 388/3/4 389/3/4 393/3/4
f 393/3/4 389/3/4 394/3/4
f 394/3/4 389/3/4 395/3/4
f 390/3/4 391/3/4 396/3/4
f 391/4/4 392/4/4 397/4/4
f 396/3/4 391/3/4 397/3/4
f 397/4/4 392/4/4 398/4/4
f 393/5/4 394/5/4 399/5/4
f 399/5/4 394/5/4 400/5/4
f 399/3/4 400/3/4 405/3/4
f 400/3/4 401/3/4 405/3/4
f 405/3/4 401/3/4 406/3/4
f 402/3/4 403/3/4 407/3/4
f 403/4/4 404/4/4 408/4/4
f 407/3/4 403/3/4 408/3/4
f 408/4/4 404/4/4 409/4/4
f 410/3/4 411/3/4 412/3/4
f 412/3/4 411/3/4 413/3/4
f 418/3/5 415/3/5 414/3/5
f 419/5/5 416/5/5 415/5/5
f 419/3/5 415/3/5 418/3/5
f 420/3/5 417/3/5 416/3/5
f 420/5/5 416/5/5 419/5/5
f 421/3/5 417/3/5 420/3/5
f 422/5/5 419/5/5 418/5/5
f 422/5/5 420/5/5 419/5/5
f 422/5/5 421/5/5 420/5/5
f 423/5/5 421/5/5 422/5/5
f 424/5/5 421/5/5 423/5/5
f 425/5/5 421/5/5 424/5/5
f 426/3/5 423/3/5 422/3/5
f 427/5/5 424/5/5 423/5/5
f 427/3/5 423/3/5 426/3/5
f 428/3/5 425/3/5 424/3/5
f 428/5/5 424/5/5 427/5/5
f 429/3/5 425/3/5 428/3/5
f 432/3/5 431/3/5 430/3/5
f 433/3/5 431/3/5 432/3/5
f 434/3/5 431/3/5 433/3/5
f 435/3/5 431/3/5 434/3/5
f 436/3/5 432/3/5 430/3/5
f 437/3/5 431/3/5 435/3/5
f 438/3/5 436/3/5 430/3/5
f 439/3/5 431/3/5 437/3/5
f 440/3/5 438/3/5 430/3/5
f 443/3/5 431/3/5 439/3/5
f 444/3/5 442/3/5 441/3/5
f 444/3/5 443/3/5 442/3/5
f 444/3/5 440/3/5 430/3/5
f 444/3/5 441/3/5 440/3/5
f 445/3/5 431/3/5 443/3/5
f 445/3/5 443/3/5 444/3/5
f 446/5/6 447/5/6 449/5/6
f 449/5/6 447/5/6 450/5/6
f 450/5/6 447/5/6 451/5/6
f 451/5/6 447/5/6 452/5/6
f 448/5/6 449/5/6 454/5/6
f 449/5/6 450/5/6 454/5/6
f 454/5/6 450/5/6 455/5/6
f 456/5/6 457/5/6 460/5/6
f 452/5/6 453/5/6 461/5/6
f 451/5/6 452/5/6 461/5/6
f 448/5/6 454/5/6 462/5/6
f 458/5/6 459/5/6 463/5/6
f 463/5/6 459/5/6 464/5/6
f 462/5/6 463/5/6 464/5/6
f 455/5/6 450/5/6 465/5/6
f 465/5/6 450/5/6 466/5/6
f 456/5/6 460/5/6 467/5/6
f 460/5/6 461/5/6 467/5/6
f 461/5/6 453/5/6 468/5/6
f 467/5/6 461/5/6 468/5/6
f 462/5/6 464/5/6 469/5/6
f 448/5/6 462/5/6 469/5/6
f 469/5/6 464/5/6 470/5/6
f 468/5/6 453/5/6 473/5/6
f 473/5/6 453/5/6 474/5/6
f 471/5/6 472/5/6 475/5/6
f 475/5/6 472/5/6 476/5/6
f 448/5/6 469/5/6 479/5/6
f 476/5/6 472/5/6 480/5/6
f 470/5/6 464/5/6 481/5/6
f 481/5/6 464/5/6 482/5/6
f 479/5/6 480/5/6 483/5/6
f 480/5/6 472/5/6 483/5/6
f 477/5/6 478/5/6 485/5/6
f 485/5/6 478/5/6 486/5/6
f 477/5/6 485/5/6 487/5/6
f 474/5/6 453/5/6 488/5/6
f 483/5/6 484/5/6 489/5/6
f 477/5/6 487/5/6 492/5/6
f 487/5/6 488/5/6 492/5/6
f 489/5/6 490/5/6 493/5/6
f 493/5/6 490/5/6 494/5/6
f 494/5/6 490/5/6 495/5/6
f 495/5/6 490/5/6 496/5/6
f 489/5/6 493/5/6 497/5/6
f 491/5/6 492/5/6 498/5/6
f 489/5/6 497/5/6 499/5/6
f 497/5/6 498/5/6 499/5/6
f 483/5/6 489/5/6 499/5/6
f 479/5/6 483/5/6 499/5/6
f 448/5/6 479/5/6 499/5/6
f 499/5/6 498/5/6 500/5/6
f 498/5/6 492/5/6 501/5/6
f 500/5/6 498/5/6 501/5/6
f 492/5/6 488/5/6 501/5/6
f 488/5/6 453/5/6 501/5/6
f 501/5/6 453/5/6 502/5/6
f 500/5/6 501/5/6 503/5/6
f 503/5/6 501/5/6 504/5/6
f 505/2/6 506/2/6 509/2/6
f 509/2/6 506/2/6 510/2/6
f 507/2/6 508/2/6 511/2/6
f 511/2/6 508/2/6 512/2/6
f 510/2/6 506/2/6 513/2/6
f 513/2/6 506/2/6 514/2/6
f 507/2/6 511/2/6 515/2/6
f 515/2/6 511/2/6 516/2/6
f 512/2/6 508/2/6 517/2/6
f 517/2/6 508/2/6 518/2/6
f 505/2/6 509/2/6 519/2/6
f 519/2/6 509/2/6 520/2/6
f 521/2/6 522/2/6 523/2/6
f 523/2/6 522/2/6 524/2/6
f 521/2/6 523/2/6 527/2/6
f 525/2/6 526/2/6 529/2/6
f 529/2/6 526/2/6 530/2/6
f 527/2/6 528/2/6 531/2/6
f 521/2/6 527/2/6 531/2/6
f 531/2/6 528/2/6 532/2/6
f 524/2/6 522/2/6 533/2/6
f 533/2/6 534/2/6 535/2/6
f 524/2/6 533/2/6 535/2/6
f 535/2/6 534/2/6 536/2/6
f 530/2/6 526/2/6 538/2/6
f 537/2/6 538/2/6 539/2/6
f 538/2/6 526/2/6 540/2/6
f 539/2/6 538/2/6 540/2/6
f 543/2/6 544/2/6 545/2/6
f 545/2/6 544/2/6 546/2/6
f 541/2/6 542/2/6 547/2/6
f 547/2/6 542/2/6 548/2/6
f 549/2/6 550/2/6 551/2/6
f 551/2/6 550/2/6 552/2/6
f 553/1/6 554/1/6 555/1/6
f 555/1/6 554/1/6 556/1/6
f 553/1/6 555/1/6 557/1/6
f 556/1/6 554/1/6 558/1/6
f 553/1/6 557/1/6 559/1/6
f 557/1/6 558/1/6 559/1/6
f 558/1/6 554/1/6 560/1/6
f 559/1/6 558/1/6 560/1/6
f 561/1/6 562/1/6 563/1/6
f 563/1/6 562/1/6 564/1/6
f 561/1/6 563/1/6 565/1/6
f 564/1/6 562/1/6 566/1/6
f 561/1/6 565/1/6 567/1/6
f 565/1/6 566/1/6 567/1/6
f 566/1/6 562/1/6 568/1/6
f 567/1/6 566/1/6 568/1/6
f 569/5/6 570/5/6 571/5/6
f 571/5/6 570/5/6 572/5/6
f 573/3/6 574/3/6 575/3/6
f 575/3/6 574/3/6 576/3/6
f 576/3/6 574/3/6 577/3/6
f 577/3/6 574/3/6 578/3/6
f 573/3/6 575/3/6 579/3/6
f 578/3/6 574/3/6 580/3/6
f 573/3/6 579/3/6 581/3/6
f 580/3/6 574/3/6 582/3/6
f 573/3/6 581/3/6 583/3/6
f 582/3/6 574/3/6 586/3/6
f 584/3/6 585/3/6 587/3/6
f 585/3/6 586/3/6 587/3/6
f 573/3/6 583/3/6 587/3/6
f 583/3/6 584/3/6 587/3/6
f 586/3/6 574/3/6 588/3/6
f 587/3/6 586/3/6 588/3/6
f 589/4/6 590/4/6 593/4/6
f 593/4/6 590/4/6 594/4/6
f 591/4/6 592/4/6 595/4/6
f 595/4/6 592/4/6 596/4/6
f 597/4/6 598/4/6 601/4/6
f 601/4/6 598/4/6 602/4/6
f 599/4/6 600/4/6 603/4/6
f 603/4/6 600/4/6 604/4/6
