# MagicaVoxel @ Ephtracy

# group
o 

# material
mtllib Portal.mtl
usemtl palette

# normals
vn -1 0 0
vn 1 0 0
vn 0 0 1
vn 0 0 -1
vn 0 -1 0
vn 0 1 0

# texcoords
vt 0.986328 0.5
vt 0.990234 0.5
vt 0.994141 0.5

# verts
v -0.5 0 1
v -0.5 0 0.7
v -0.5 0 -0.2
v -0.5 0 -0.5
v -0.5 2 0.7
v -0.5 2 -0.2
v -0.5 2.3 1
v -0.5 2.3 -0.5
v -0.4 0 0.7
v -0.4 0 -0.2
v -0.4 0.3 0.6
v -0.4 0.3 0.2
v -0.4 0.4 0.6
v -0.4 0.4 0.3
v -0.4 0.4 0.2
v -0.4 0.4 0.1
v -0.4 0.5 0.3
v -0.4 0.5 0.2
v -0.4 0.5 0.1
v -0.4 0.5 0
v -0.4 0.6 0.2
v -0.4 0.6 0.1
v -0.4 0.6 0
v -0.4 0.6 -0.1
v -0.4 0.7 0.1
v -0.4 0.7 0
v -0.4 0.9 0
v -0.4 0.9 -0.1
v -0.4 0.9 -0.2
v -0.4 1 0.6
v -0.4 1 0.3
v -0.4 1.1 0.5
v -0.4 1.1 0.3
v -0.4 1.1 0.2
v -0.4 1.2 0.3
v -0.4 1.2 0.2
v -0.4 1.6 0.5
v -0.4 1.6 0.4
v -0.4 1.6 0
v -0.4 1.6 -0.1
v -0.4 1.6 -0.2
v -0.4 1.7 0.6
v -0.4 1.7 0.5
v -0.4 1.7 0.1
v -0.4 1.7 0
v -0.4 1.7 -0.1
v -0.4 1.8 0.4
v -0.4 1.8 0.1
v -0.4 1.8 0
v -0.4 1.9 0.5
v -0.4 1.9 0.1
v -0.4 2 0.7
v -0.4 2 -0.2
v -0.2 0 0.7
v -0.2 0 -0.2
v -0.2 0.2 0.2
v -0.2 0.2 -0.2
v -0.2 0.3 0.4
v -0.2 0.3 0.2
v -0.2 0.3 0.1
v -0.2 0.3 -0.1
v -0.2 0.4 0.5
v -0.2 0.4 0.4
v -0.2 0.4 0.3
v -0.2 0.4 0.1
v -0.2 0.4 -0.1
v -0.2 0.4 -0.2
v -0.2 0.5 0.6
v -0.2 0.5 0.5
v -0.2 0.5 0.4
v -0.2 0.5 0.3
v -0.2 0.6 0.5
v -0.2 0.6 0.4
v -0.2 0.8 0.7
v -0.2 0.8 0.6
v -0.2 0.8 0.5
v -0.2 0.8 0.3
v -0.2 0.8 0
v -0.2 0.9 0.2
v -0.2 0.9 0.1
v -0.2 0.9 0
v -0.2 0.9 -0.1
v -0.2 1 0.1
v -0.2 1 0
v -0.2 1.1 0.7
v -0.2 1.1 0.6
v -0.2 1.1 0.5
v -0.2 1.2 0.3
v -0.2 1.2 0.2
v -0.2 1.4 0.5
v -0.2 1.4 0.4
v -0.2 1.4 0.1
v -0.2 1.4 0
v -0.2 1.4 -0.1
v -0.2 1.5 0.6
v -0.2 1.5 0.5
v -0.2 1.5 0.2
v -0.2 1.5 0.1
v -0.2 1.6 0.5
v -0.2 1.6 0.4
v -0.2 1.6 0.2
v -0.2 1.6 0
v -0.2 1.7 0.4
v -0.2 1.7 0.2
v -0.2 2 0.7
v -0.2 2 -0.2
v -0.1 0 1
v -0.1 0 0.7
v -0.1 0 -0.2
v -0.1 0 -0.5
v -0.1 2 0.7
v -0.1 2 -0.2
v -0.1 2.3 1
v -0.1 2.3 -0.5
v -0.5 0 1
v -0.5 2.3 1
v -0.1 0 1
v -0.1 2.3 1
v -0.5 0 -0.2
v -0.5 2 -0.2
v -0.4 0 -0.2
v -0.4 0.9 -0.2
v -0.4 1.6 -0.2
v -0.4 2 -0.2
v -0.2 0 -0.2
v -0.2 0.2 -0.2
v -0.2 0.4 -0.2
v -0.2 2 -0.2
v -0.1 0 -0.2
v -0.1 2 -0.2
v -0.5 0 0.7
v -0.5 2 0.7
v -0.4 0 0.7
v -0.4 2 0.7
v -0.2 0 0.7
v -0.2 0.8 0.7
v -0.2 1.1 0.7
v -0.2 2 0.7
v -0.1 0 0.7
v -0.1 2 0.7
v -0.5 0 -0.5
v -0.5 2.3 -0.5
v -0.1 0 -0.5
v -0.1 2.3 -0.5
v -0.5 0 1
v -0.1 0 1
v -0.5 0 0.7
v -0.4 0 0.7
v -0.2 0 0.7
v -0.1 0 0.7
v -0.5 0 -0.2
v -0.4 0 -0.2
v -0.2 0 -0.2
v -0.1 0 -0.2
v -0.5 0 -0.5
v -0.1 0 -0.5
v -0.5 2 0.7
v -0.4 2 0.7
v -0.2 2 0.7
v -0.1 2 0.7
v -0.5 2 -0.2
v -0.4 2 -0.2
v -0.2 2 -0.2
v -0.1 2 -0.2
v -0.5 2.3 1
v -0.1 2.3 1
v -0.5 2.3 -0.5
v -0.1 2.3 -0.5

# faces
f 5/3/1 2/3/1 1/3/1
f 6/3/1 4/3/1 3/3/1
f 7/3/1 5/3/1 1/3/1
f 7/3/1 6/3/1 5/3/1
f 8/3/1 4/3/1 6/3/1
f 8/3/1 6/3/1 7/3/1
f 11/2/1 10/2/1 9/2/1
f 12/2/1 10/2/1 11/2/1
f 13/2/1 11/2/1 9/2/1
f 13/1/1 12/1/1 11/1/1
f 14/1/1 12/1/1 13/1/1
f 15/2/1 10/2/1 12/2/1
f 15/1/1 12/1/1 14/1/1
f 16/2/1 10/2/1 15/2/1
f 17/2/1 14/2/1 13/2/1
f 17/1/1 15/1/1 14/1/1
f 17/1/1 16/1/1 15/1/1
f 18/1/1 16/1/1 17/1/1
f 19/2/1 10/2/1 16/2/1
f 19/1/1 16/1/1 18/1/1
f 20/2/1 10/2/1 19/2/1
f 21/2/1 18/2/1 17/2/1
f 21/1/1 19/1/1 18/1/1
f 21/1/1 20/1/1 19/1/1
f 22/1/1 20/1/1 21/1/1
f 23/2/1 10/2/1 20/2/1
f 23/1/1 20/1/1 22/1/1
f 24/2/1 10/2/1 23/2/1
f 25/2/1 22/2/1 21/2/1
f 25/1/1 23/1/1 22/1/1
f 25/1/1 24/1/1 23/1/1
f 26/1/1 24/1/1 25/1/1
f 27/2/1 26/2/1 25/2/1
f 27/1/1 24/1/1 26/1/1
f 28/2/1 10/2/1 24/2/1
f 28/1/1 24/1/1 27/1/1
f 29/2/1 10/2/1 28/2/1
f 30/2/1 27/2/1 25/2/1
f 30/2/1 13/2/1 9/2/1
f 30/2/1 17/2/1 13/2/1
f 30/2/1 28/2/1 27/2/1
f 30/2/1 25/2/1 21/2/1
f 30/2/1 21/2/1 17/2/1
f 31/2/1 28/2/1 30/2/1
f 32/1/1 31/1/1 30/1/1
f 33/2/1 28/2/1 31/2/1
f 33/1/1 31/1/1 32/1/1
f 34/2/1 28/2/1 33/2/1
f 35/2/1 33/2/1 32/2/1
f 35/1/1 34/1/1 33/1/1
f 36/2/1 28/2/1 34/2/1
f 36/1/1 34/1/1 35/1/1
f 37/1/1 32/1/1 30/1/1
f 37/2/1 35/2/1 32/2/1
f 37/2/1 36/2/1 35/2/1
f 38/2/1 36/2/1 37/2/1
f 39/2/1 28/2/1 36/2/1
f 39/2/1 36/2/1 38/2/1
f 40/1/1 29/1/1 28/1/1
f 40/2/1 28/2/1 39/2/1
f 41/1/1 29/1/1 40/1/1
f 42/2/1 30/2/1 9/2/1
f 42/1/1 38/1/1 37/1/1
f 42/1/1 37/1/1 30/1/1
f 43/1/1 38/1/1 42/1/1
f 44/2/1 39/2/1 38/2/1
f 45/1/1 40/1/1 39/1/1
f 45/2/1 39/2/1 44/2/1
f 46/2/1 41/2/1 40/2/1
f 46/1/1 40/1/1 45/1/1
f 47/1/1 38/1/1 43/1/1
f 47/2/1 44/2/1 38/2/1
f 48/1/1 45/1/1 44/1/1
f 48/2/1 44/2/1 47/2/1
f 49/2/1 46/2/1 45/2/1
f 49/1/1 45/1/1 48/1/1
f 50/1/1 47/1/1 43/1/1
f 50/1/1 48/1/1 47/1/1
f 50/2/1 43/2/1 42/2/1
f 51/2/1 49/2/1 48/2/1
f 51/1/1 48/1/1 50/1/1
f 52/2/1 50/2/1 42/2/1
f 52/2/1 42/2/1 9/2/1
f 52/2/1 51/2/1 50/2/1
f 53/2/1 41/2/1 46/2/1
f 53/2/1 51/2/1 52/2/1
f 53/2/1 46/2/1 49/2/1
f 53/2/1 49/2/1 51/2/1
f 54/2/2 55/2/2 56/2/2
f 56/2/2 55/2/2 57/2/2
f 54/2/2 56/2/2 58/2/2
f 56/1/2 57/1/2 59/1/2
f 58/2/2 56/2/2 59/2/2
f 59/1/2 57/1/2 60/1/2
f 60/1/2 57/1/2 61/1/2
f 54/2/2 58/2/2 62/2/2
f 58/1/2 59/1/2 63/1/2
f 62/2/2 58/2/2 63/2/2
f 59/1/2 60/1/2 63/1/2
f 63/1/2 60/1/2 64/1/2
f 60/2/2 61/2/2 65/2/2
f 64/1/2 60/1/2 65/1/2
f 61/1/2 57/1/2 66/1/2
f 65/2/2 61/2/2 66/2/2
f 66/1/2 57/1/2 67/1/2
f 54/2/2 62/2/2 68/2/2
f 63/1/2 64/1/2 69/1/2
f 68/2/2 62/2/2 69/2/2
f 62/1/2 63/1/2 69/1/2
f 69/1/2 64/1/2 70/1/2
f 64/2/2 65/2/2 71/2/2
f 70/1/2 64/1/2 71/1/2
f 66/2/2 67/2/2 71/2/2
f 65/2/2 66/2/2 71/2/2
f 69/1/2 70/1/2 72/1/2
f 68/1/2 69/1/2 72/1/2
f 70/2/2 71/2/2 73/2/2
f 72/1/2 70/1/2 73/1/2
f 54/2/2 68/2/2 74/2/2
f 68/1/2 72/1/2 75/1/2
f 74/2/2 68/2/2 75/2/2
f 72/2/2 73/2/2 76/2/2
f 75/1/2 72/1/2 76/1/2
f 71/2/2 67/2/2 77/2/2
f 76/2/2 73/2/2 77/2/2
f 73/2/2 71/2/2 77/2/2
f 77/2/2 67/2/2 78/2/2
f 77/1/2 78/1/2 79/1/2
f 79/1/2 78/1/2 80/1/2
f 78/2/2 67/2/2 81/2/2
f 80/1/2 78/1/2 81/1/2
f 81/2/2 67/2/2 82/2/2
f 79/2/2 80/2/2 83/2/2
f 80/1/2 81/1/2 83/1/2
f 81/1/2 82/1/2 83/1/2
f 83/1/2 82/1/2 84/1/2
f 74/1/2 75/1/2 85/1/2
f 75/2/2 76/2/2 86/2/2
f 85/1/2 75/1/2 86/1/2
f 76/2/2 77/2/2 86/2/2
f 86/2/2 77/2/2 87/2/2
f 77/1/2 79/1/2 88/1/2
f 87/2/2 77/2/2 88/2/2
f 83/2/2 84/2/2 89/2/2
f 88/1/2 79/1/2 89/1/2
f 79/2/2 83/2/2 89/2/2
f 87/2/2 88/2/2 90/2/2
f 86/1/2 87/1/2 90/1/2
f 88/2/2 89/2/2 90/2/2
f 90/2/2 89/2/2 91/2/2
f 89/2/2 84/2/2 92/2/2
f 91/2/2 89/2/2 92/2/2
f 84/1/2 82/1/2 93/1/2
f 92/2/2 84/2/2 93/2/2
f 82/2/2 67/2/2 94/2/2
f 93/1/2 82/1/2 94/1/2
f 90/1/2 91/1/2 95/1/2
f 85/2/2 86/2/2 95/2/2
f 86/1/2 90/1/2 95/1/2
f 95/1/2 91/1/2 96/1/2
f 91/2/2 92/2/2 97/2/2
f 92/1/2 93/1/2 98/1/2
f 97/2/2 92/2/2 98/2/2
f 96/1/2 91/1/2 99/1/2
f 95/2/2 96/2/2 99/2/2
f 91/2/2 97/2/2 100/2/2
f 99/1/2 91/1/2 100/1/2
f 97/1/2 98/1/2 101/1/2
f 100/2/2 97/2/2 101/2/2
f 98/1/2 93/1/2 102/1/2
f 101/1/2 98/1/2 102/1/2
f 93/2/2 94/2/2 102/2/2
f 100/1/2 101/1/2 103/1/2
f 99/2/2 100/2/2 103/2/2
f 101/2/2 102/2/2 104/2/2
f 103/1/2 101/1/2 104/1/2
f 95/2/2 99/2/2 105/2/2
f 99/2/2 103/2/2 105/2/2
f 103/2/2 104/2/2 105/2/2
f 85/2/2 95/2/2 105/2/2
f 102/2/2 94/2/2 106/2/2
f 105/2/2 104/2/2 106/2/2
f 94/2/2 67/2/2 106/2/2
f 104/2/2 102/2/2 106/2/2
f 107/3/2 108/3/2 111/3/2
f 109/3/2 110/3/2 112/3/2
f 107/3/2 111/3/2 113/3/2
f 111/3/2 112/3/2 113/3/2
f 112/3/2 110/3/2 114/3/2
f 113/3/2 112/3/2 114/3/2
f 117/3/3 116/3/3 115/3/3
f 118/3/3 116/3/3 117/3/3
f 121/3/3 120/3/3 119/3/3
f 122/3/3 120/3/3 121/3/3
f 123/3/3 120/3/3 122/3/3
f 124/3/3 120/3/3 123/3/3
f 129/3/3 126/3/3 125/3/3
f 129/3/3 128/3/3 127/3/3
f 129/3/3 127/3/3 126/3/3
f 130/3/3 128/3/3 129/3/3
f 131/3/4 132/3/4 133/3/4
f 133/3/4 132/3/4 134/3/4
f 135/3/4 136/3/4 139/3/4
f 137/3/4 138/3/4 139/3/4
f 136/3/4 137/3/4 139/3/4
f 139/3/4 138/3/4 140/3/4
f 141/3/4 142/3/4 143/3/4
f 143/3/4 142/3/4 144/3/4
f 147/3/5 146/3/5 145/3/5
f 148/3/5 146/3/5 147/3/5
f 149/3/5 146/3/5 148/3/5
f 150/3/5 146/3/5 149/3/5
f 152/2/5 149/2/5 148/2/5
f 153/2/5 149/2/5 152/2/5
f 155/3/5 152/3/5 151/3/5
f 155/3/5 154/3/5 153/3/5
f 155/3/5 153/3/5 152/3/5
f 156/3/5 154/3/5 155/3/5
f 161/3/5 158/3/5 157/3/5
f 162/3/5 158/3/5 161/3/5
f 163/3/5 160/3/5 159/3/5
f 164/3/5 160/3/5 163/3/5
f 165/3/6 166/3/6 167/3/6
f 167/3/6 166/3/6 168/3/6
