# MagicaVoxel @ Ephtracy

# group
o 

# material
mtllib untitled.mtl
usemtl palette

# normals
vn -1 0 0
vn 1 0 0
vn 0 0 1
vn 0 0 -1
vn 0 -1 0
vn 0 1 0

# texcoords
vt 0.0449219 0.5
vt 0.0878906 0.5
vt 0.0917969 0.5
vt 0.955078 0.5

# verts
v -0.6 2.1 0.6
v -0.6 2.1 -0.3
v -0.6 2.5 0.6
v -0.6 2.5 -0.3
v -0.4 2.5 0.4
v -0.4 2.5 -0.1
v -0.4 2.6 0.4
v -0.4 2.6 -0.1
v -0.4 2.8 0.2
v -0.4 2.8 -0.1
v -0.4 2.9 0.4
v -0.4 2.9 0.2
v -0.4 2.9 0.1
v -0.4 3.1 0.1
v -0.4 3.1 -0.1
v -0.3 0 0.3
v -0.3 0 5.96046e-08
v -0.3 2.1 0.3
v -0.3 2.1 5.96046e-08
v -0.2 2.9 0.4
v -0.2 2.9 0.1
v -0.2 3.1 0.4
v -0.2 3.1 0.1
v -0.2 2.8 5.96046e-08
v -0.2 2.8 -0.1
v -0.2 2.9 5.96046e-08
v -0.2 2.9 -0.1
v -0.2 3.1 5.96046e-08
v -0.2 3.1 -0.1
v -0.1 3 0.4
v -0.1 3 0.2
v -0.1 3.1 0.4
v -0.1 3.1 0.2
v -5.96046e-08 0 0.3
v -5.96046e-08 0 5.96046e-08
v -5.96046e-08 2.1 0.3
v -5.96046e-08 2.1 5.96046e-08
v 0.1 2.5 0.4
v 0.1 2.5 -0.1
v 0.1 2.6 0.4
v 0.1 2.6 -0.1
v 0.1 2.8 0.4
v 0.1 2.8 0.2
v 0.1 2.8 5.96046e-08
v 0.1 2.8 -0.1
v 0.1 2.9 0.2
v 0.1 2.9 5.96046e-08
v 0.1 3 0.4
v 0.1 3 0.2
v 0.1 3.1 0.2
v 0.1 3.1 5.96046e-08
v 0.3 2.1 0.6
v 0.3 2.1 -0.3
v 0.3 2.5 0.6
v 0.3 2.5 -0.3
v -0.6 2.1 0.6
v -0.6 2.5 0.6
v 0.3 2.1 0.6
v 0.3 2.5 0.6
v -0.4 2.5 0.4
v -0.4 2.6 0.4
v -0.4 2.9 0.4
v -0.2 2.9 0.4
v -0.2 3.1 0.4
v -0.1 2.8 0.4
v -0.1 2.9 0.4
v -0.1 3 0.4
v -0.1 3.1 0.4
v 0.1 2.5 0.4
v 0.1 2.6 0.4
v 0.1 2.8 0.4
v 0.1 3 0.4
v -0.3 0 0.3
v -0.3 2.1 0.3
v -5.96046e-08 0 0.3
v -5.96046e-08 2.1 0.3
v -0.1 3 0.2
v -0.1 3.1 0.2
v 0.1 3 0.2
v 0.1 3.1 0.2
v -0.4 2.9 0.1
v -0.4 3.1 0.1
v -0.3 2.9 0.1
v -0.2 2.9 0.1
v -0.2 3.1 0.1
v -0.3 0 5.96046e-08
v -0.3 2.1 5.96046e-08
v -0.2 2.8 5.96046e-08
v -0.2 2.9 5.96046e-08
v -0.2 3.1 5.96046e-08
v -5.96046e-08 0 5.96046e-08
v -5.96046e-08 2.1 5.96046e-08
v 0.1 2.8 5.96046e-08
v 0.1 2.9 5.96046e-08
v 0.1 3.1 5.96046e-08
v -0.4 2.5 -0.1
v -0.4 2.6 -0.1
v -0.4 2.8 -0.1
v -0.4 3.1 -0.1
v -0.3 2.8 -0.1
v -0.3 2.9 -0.1
v -0.2 2.8 -0.1
v -0.2 2.9 -0.1
v -0.2 3.1 -0.1
v 0.1 2.5 -0.1
v 0.1 2.6 -0.1
v 0.1 2.8 -0.1
v -0.6 2.1 -0.3
v -0.6 2.5 -0.3
v 0.3 2.1 -0.3
v 0.3 2.5 -0.3
v -0.3 0 0.3
v -5.96046e-08 0 0.3
v -0.3 0 5.96046e-08
v -5.96046e-08 0 5.96046e-08
v -0.6 2.1 0.6
v 0.3 2.1 0.6
v -0.3 2.1 0.3
v -5.96046e-08 2.1 0.3
v -0.3 2.1 5.96046e-08
v -5.96046e-08 2.1 5.96046e-08
v -0.6 2.1 -0.3
v 0.3 2.1 -0.3
v -0.6 2.5 0.6
v 0.3 2.5 0.6
v -0.4 2.5 0.4
v 0.1 2.5 0.4
v -0.4 2.5 -0.1
v 0.1 2.5 -0.1
v -0.6 2.5 -0.3
v 0.3 2.5 -0.3
v -0.2 2.8 5.96046e-08
v 0.1 2.8 5.96046e-08
v -0.2 2.8 -0.1
v 0.1 2.8 -0.1
v -0.4 2.9 0.4
v -0.2 2.9 0.4
v -0.4 2.9 0.2
v -0.3 2.9 0.2
v -0.4 2.9 0.1
v -0.3 2.9 0.1
v -0.2 2.9 0.1
v -0.1 3 0.4
v 0.1 3 0.4
v -0.1 3 0.2
v 0.1 3 0.2
v -0.2 3.1 0.4
v -0.1 3.1 0.4
v -0.1 3.1 0.2
v 0.1 3.1 0.2
v -0.4 3.1 0.1
v -0.2 3.1 0.1
v -0.2 3.1 5.96046e-08
v 0.1 3.1 5.96046e-08
v -0.4 3.1 -0.1
v -0.2 3.1 -0.1

# faces
f 3/4/1 2/4/1 1/4/1
f 4/4/1 2/4/1 3/4/1
f 7/2/1 6/2/1 5/2/1
f 8/2/1 6/2/1 7/2/1
f 9/3/1 8/3/1 7/3/1
f 10/3/1 8/3/1 9/3/1
f 11/3/1 9/3/1 7/3/1
f 12/1/1 10/1/1 9/1/1
f 12/3/1 9/3/1 11/3/1
f 13/1/1 10/1/1 12/1/1
f 14/1/1 10/1/1 13/1/1
f 15/1/1 10/1/1 14/1/1
f 18/4/1 17/4/1 16/4/1
f 19/4/1 17/4/1 18/4/1
f 22/1/1 21/1/1 20/1/1
f 23/1/1 21/1/1 22/1/1
f 24/3/2 25/3/2 26/3/2
f 26/3/2 25/3/2 27/3/2
f 26/1/2 27/1/2 28/1/2
f 28/1/2 27/1/2 29/1/2
f 30/1/2 31/1/2 32/1/2
f 32/1/2 31/1/2 33/1/2
f 34/4/2 35/4/2 36/4/2
f 36/4/2 35/4/2 37/4/2
f 38/2/2 39/2/2 40/2/2
f 40/2/2 39/2/2 41/2/2
f 40/3/2 41/3/2 42/3/2
f 42/3/2 41/3/2 43/3/2
f 43/3/2 41/3/2 44/3/2
f 44/3/2 41/3/2 45/3/2
f 42/1/2 43/1/2 46/1/2
f 43/3/2 44/3/2 46/3/2
f 46/3/2 44/3/2 47/3/2
f 42/1/2 46/1/2 48/1/2
f 46/1/2 47/1/2 48/1/2
f 48/1/2 47/1/2 49/1/2
f 49/1/2 47/1/2 50/1/2
f 50/1/2 47/1/2 51/1/2
f 52/4/2 53/4/2 54/4/2
f 54/4/2 53/4/2 55/4/2
f 58/4/3 57/4/3 56/4/3
f 59/4/3 57/4/3 58/4/3
f 63/3/3 62/3/3 61/3/3
f 65/3/3 63/3/3 61/3/3
f 66/1/3 64/1/3 63/1/3
f 66/3/3 63/3/3 65/3/3
f 67/1/3 64/1/3 66/1/3
f 68/1/3 64/1/3 67/1/3
f 69/2/3 61/2/3 60/2/3
f 70/3/3 65/3/3 61/3/3
f 70/2/3 61/2/3 69/2/3
f 71/1/3 66/1/3 65/1/3
f 71/3/3 65/3/3 70/3/3
f 71/1/3 67/1/3 66/1/3
f 72/1/3 67/1/3 71/1/3
f 75/4/3 74/4/3 73/4/3
f 76/4/3 74/4/3 75/4/3
f 79/1/3 78/1/3 77/1/3
f 80/1/3 78/1/3 79/1/3
f 83/1/3 82/1/3 81/1/3
f 84/1/3 82/1/3 83/1/3
f 85/1/3 82/1/3 84/1/3
f 86/4/4 87/4/4 91/4/4
f 91/4/4 87/4/4 92/4/4
f 88/3/4 89/3/4 93/3/4
f 89/1/4 90/1/4 94/1/4
f 93/3/4 89/3/4 94/3/4
f 94/1/4 90/1/4 95/1/4
f 97/3/4 98/3/4 100/3/4
f 98/1/4 99/1/4 100/1/4
f 100/1/4 99/1/4 101/1/4
f 97/3/4 100/3/4 102/3/4
f 100/3/4 101/3/4 102/3/4
f 101/1/4 99/1/4 103/1/4
f 102/3/4 101/3/4 103/3/4
f 103/1/4 99/1/4 104/1/4
f 96/2/4 97/2/4 105/2/4
f 97/3/4 102/3/4 106/3/4
f 105/2/4 97/2/4 106/2/4
f 106/3/4 102/3/4 107/3/4
f 108/4/4 109/4/4 110/4/4
f 110/4/4 109/4/4 111/4/4
f 114/4/5 113/4/5 112/4/5
f 115/4/5 113/4/5 114/4/5
f 118/4/5 117/4/5 116/4/5
f 119/4/5 117/4/5 118/4/5
f 120/4/5 118/4/5 116/4/5
f 121/4/5 117/4/5 119/4/5
f 122/4/5 120/4/5 116/4/5
f 122/4/5 121/4/5 120/4/5
f 123/4/5 117/4/5 121/4/5
f 123/4/5 121/4/5 122/4/5
f 124/4/6 125/4/6 126/4/6
f 126/4/6 125/4/6 127/4/6
f 124/4/6 126/4/6 128/4/6
f 127/4/6 125/4/6 129/4/6
f 124/4/6 128/4/6 130/4/6
f 128/4/6 129/4/6 130/4/6
f 129/4/6 125/4/6 131/4/6
f 130/4/6 129/4/6 131/4/6
f 132/3/6 133/3/6 134/3/6
f 134/3/6 133/3/6 135/3/6
f 136/3/6 137/3/6 138/3/6
f 138/3/6 137/3/6 139/3/6
f 138/1/6 139/1/6 140/1/6
f 139/3/6 137/3/6 141/3/6
f 140/1/6 139/1/6 141/1/6
f 141/3/6 137/3/6 142/3/6
f 143/1/6 144/1/6 145/1/6
f 145/1/6 144/1/6 146/1/6
f 147/1/6 148/1/6 149/1/6
f 147/1/6 149/1/6 152/1/6
f 149/1/6 150/1/6 152/1/6
f 152/1/6 150/1/6 153/1/6
f 151/1/6 152/1/6 153/1/6
f 153/1/6 150/1/6 154/1/6
f 151/1/6 153/1/6 155/1/6
f 155/1/6 153/1/6 156/1/6
