# MagicaVoxel @ Ephtracy

# group
o 

# material
mtllib grand.mtl
usemtl palette

# normals
vn -1 0 0
vn 1 0 0
vn 0 0 1
vn 0 0 -1
vn 0 -1 0
vn 0 1 0

# texcoords
vt 0.00195313 0.5
vt 0.0253906 0.5
vt 0.0488281 0.5
vt 0.0527344 0.5
vt 0.0566406 0.5
vt 0.0605469 0.5
vt 0.0800781 0.5
vt 0.0839844 0.5
vt 0.0878906 0.5
vt 0.0917969 0.5
vt 0.115234 0.5

# verts
v -0.4 0.4 0.8
v -0.4 0.4 0.6
v -0.4 0.5 0.8
v -0.4 0.5 0.6
v -0.4 0.5 0.4
v -0.4 0.6 0.6
v -0.4 0.6 0.4
v -0.4 0.9 0.9
v -0.4 0.9 0.8
v -0.4 1 0.9
v -0.4 1 0.8
v -0.3 0 0.9
v -0.3 0 0.8
v -0.3 0 0.2
v -0.3 0.1 0.9
v -0.3 0.1 0.8
v -0.3 0.1 0.2
v -0.3 0.3 0.8
v -0.3 0.3 0.5
v -0.3 0.4 0.9
v -0.3 0.4 0.8
v -0.3 0.4 0.6
v -0.3 0.4 0.5
v -0.3 0.4 0.4
v -0.3 0.5 0.9
v -0.3 0.5 0.8
v -0.3 0.5 0.6
v -0.3 0.5 0.4
v -0.3 0.6 0.6
v -0.3 0.6 0.4
v -0.3 0.7 0.8
v -0.3 0.7 0.7
v -0.3 0.7 0.2
v -0.3 0.8 0.7
v -0.3 0.8 0.6
v -0.3 0.9 0.8
v -0.3 0.9 0.7
v -0.3 0.9 0.6
v -0.3 1 0.8
v -0.3 1 0.7
v -0.3 1.3 0.8
v -0.3 1.3 0.2
v -0.2 0.5 0.9
v -0.2 0.5 0.8
v -0.2 0.6 0.9
v -0.2 0.6 0.8
v -0.2 0.7 0.8
v -0.2 0.8 0.9
v -0.2 0.8 0.8
v -0.2 1 0.9
v -0.2 1 0.8
v -0.2 1.1 0.9
v -0.2 1.1 0.8
v -0.2 1.3 0.7
v -0.2 1.3 0.3
v -0.2 1.4 0.7
v -0.2 1.4 0.3
v -0.1 0.4 0.9
v -0.1 0.4 0.8
v -0.1 0.5 0.9
v -0.1 0.5 0.8
v -0.1 0.8 0.9
v -0.1 0.8 0.8
v -0.1 0.9 0.9
v -0.1 0.9 0.8
v 0.1 0.4 0.2
v 0.1 0.4 0.1
v 0.1 0.5 0.2
v 0.1 0.5 0.1
v 0.1 0.9 0.7
v 0.1 0.9 0.6
v 0.1 1 0.9
v 0.1 1 0.8
v 0.1 1 0.7
v 0.1 1 0.6
v 0.1 1.1 0.9
v 0.1 1.1 0.8
v 0.2 0.8 0.7
v 0.2 0.8 0.6
v 0.2 0.9 0.9
v 0.2 0.9 0.8
v 0.2 0.9 0.7
v 0.2 0.9 0.6
v 0.2 1 0.9
v 0.2 1 0.8
v -0.2 0 0.9
v -0.2 0 0.8
v -0.2 0.1 0.9
v -0.2 0.1 0.8
v -0.2 0.4 0.9
v -0.2 0.4 0.8
v -0.2 0.5 0.9
v -0.2 0.5 0.8
v -0.2 0.8 0.7
v -0.2 0.8 0.6
v -0.2 0.9 0.9
v -0.2 0.9 0.8
v -0.2 0.9 0.7
v -0.2 0.9 0.6
v -0.2 1 0.9
v -0.2 1 0.8
v -0.1 0.9 0.7
v -0.1 0.9 0.6
v -0.1 1 0.9
v -0.1 1 0.8
v -0.1 1 0.7
v -0.1 1 0.6
v -0.1 1.1 0.9
v -0.1 1.1 0.8
v 0.1 0.4 0.9
v 0.1 0.4 0.8
v 0.1 0.5 0.9
v 0.1 0.5 0.8
v 0.1 0.6 0.9
v 0.1 0.6 0.8
v 0.1 0.8 0.9
v 0.1 0.8 0.8
v 0.1 0.9 0.9
v 0.1 0.9 0.8
v 0.2 0.6 0.9
v 0.2 0.6 0.8
v 0.2 0.7 0.8
v 0.2 0.8 0.9
v 0.2 0.8 0.8
v 0.2 1 0.9
v 0.2 1 0.8
v 0.2 1.1 0.9
v 0.2 1.1 0.8
v 0.2 1.3 0.7
v 0.2 1.3 0.3
v 0.2 1.4 0.7
v 0.2 1.4 0.3
v 0.3 0 0.8
v 0.3 0 0.2
v 0.3 0.1 0.8
v 0.3 0.1 0.2
v 0.3 0.3 0.3
v 0.3 0.3 0.2
v 0.3 0.4 0.5
v 0.3 0.4 0.3
v 0.3 0.4 0.2
v 0.3 0.4 0.1
v 0.3 0.5 0.5
v 0.3 0.5 0.3
v 0.3 0.5 0.2
v 0.3 0.5 0.1
v 0.3 0.6 0.5
v 0.3 0.6 0.3
v 0.3 0.7 0.8
v 0.3 0.7 0.7
v 0.3 0.7 0.4
v 0.3 0.7 0.3
v 0.3 0.7 0.2
v 0.3 0.8 0.7
v 0.3 0.8 0.6
v 0.3 0.8 0.4
v 0.3 0.8 0.3
v 0.3 0.9 0.8
v 0.3 0.9 0.7
v 0.3 0.9 0.6
v 0.3 1 0.8
v 0.3 1 0.7
v 0.3 1.1 0.8
v 0.3 1.1 0.7
v 0.3 1.3 0.8
v 0.3 1.3 0.7
v 0.3 1.3 0.2
v 0.4 0.4 0.3
v 0.4 0.4 0.2
v 0.4 0.5 0.5
v 0.4 0.5 0.3
v 0.4 0.5 0.2
v 0.4 0.6 0.5
v 0.4 0.6 0.3
v 0.4 0.9 0.9
v 0.4 0.9 0.8
v 0.4 1 0.9
v 0.4 1 0.8
v -0.4 0.9 0.9
v -0.4 1 0.9
v -0.3 0 0.9
v -0.3 0.1 0.9
v -0.3 0.4 0.9
v -0.3 0.5 0.9
v -0.3 0.9 0.9
v -0.3 1 0.9
v -0.2 0 0.9
v -0.2 0.1 0.9
v -0.2 0.4 0.9
v -0.2 0.5 0.9
v -0.2 0.6 0.9
v -0.2 0.8 0.9
v -0.2 0.9 0.9
v -0.2 1 0.9
v -0.2 1.1 0.9
v -0.1 0.4 0.9
v -0.1 0.5 0.9
v -0.1 0.6 0.9
v -0.1 0.8 0.9
v -0.1 0.9 0.9
v -0.1 1 0.9
v -0.1 1.1 0.9
v 0 0.5 0.9
v 0 0.6 0.9
v 0.1 0.4 0.9
v 0.1 0.5 0.9
v 0.1 0.6 0.9
v 0.1 0.8 0.9
v 0.1 0.9 0.9
v 0.1 1 0.9
v 0.1 1.1 0.9
v 0.2 0.6 0.9
v 0.2 0.8 0.9
v 0.2 0.9 0.9
v 0.2 1 0.9
v 0.2 1.1 0.9
v 0.3 0.9 0.9
v 0.3 1 0.9
v 0.4 0.9 0.9
v 0.4 1 0.9
v -0.4 0.4 0.8
v -0.4 0.5 0.8
v -0.3 0.4 0.8
v -0.3 0.5 0.8
v -0.3 0.7 0.8
v -0.3 0.9 0.8
v -0.3 1 0.8
v -0.3 1.3 0.8
v -0.2 0 0.8
v -0.2 0.1 0.8
v -0.2 0.4 0.8
v -0.2 0.5 0.8
v -0.2 0.6 0.8
v -0.2 0.7 0.8
v -0.2 0.8 0.8
v -0.2 0.9 0.8
v -0.2 1 0.8
v -0.2 1.1 0.8
v -0.1 0.2 0.8
v -0.1 0.4 0.8
v -0.1 0.5 0.8
v -0.1 0.8 0.8
v -0.1 0.9 0.8
v -0.1 1 0.8
v -0.1 1.1 0.8
v 0 0.2 0.8
v 0 0.3 0.8
v 0 0.9 0.8
v 0 1 0.8
v 0.1 0.3 0.8
v 0.1 0.4 0.8
v 0.1 0.5 0.8
v 0.1 0.6 0.8
v 0.1 0.8 0.8
v 0.1 0.9 0.8
v 0.1 1 0.8
v 0.1 1.1 0.8
v 0.1 1.2 0.8
v 0.2 0.4 0.8
v 0.2 0.5 0.8
v 0.2 0.6 0.8
v 0.2 0.7 0.8
v 0.2 0.8 0.8
v 0.2 0.9 0.8
v 0.2 1 0.8
v 0.2 1.1 0.8
v 0.2 1.2 0.8
v 0.2 1.3 0.8
v 0.3 0 0.8
v 0.3 0.1 0.8
v 0.3 0.7 0.8
v 0.3 0.9 0.8
v 0.3 1 0.8
v 0.3 1.1 0.8
v 0.3 1.3 0.8
v -0.2 1.3 0.7
v -0.2 1.4 0.7
v 0.2 1.3 0.7
v 0.2 1.4 0.7
v -0.4 0.5 0.6
v -0.4 0.6 0.6
v -0.3 0.5 0.6
v -0.3 0.6 0.6
v -0.2 0.8 0.6
v -0.2 0.9 0.6
v -0.1 0.9 0.6
v -0.1 1 0.6
v 0.1 0.9 0.6
v 0.1 1 0.6
v 0.2 0.8 0.6
v 0.2 0.9 0.6
v 0.3 0.5 0.5
v 0.3 0.6 0.5
v 0.4 0.5 0.5
v 0.4 0.6 0.5
v 0.3 0.4 0.3
v 0.3 0.5 0.3
v 0.4 0.4 0.3
v 0.4 0.5 0.3
v -0.4 0.9 0.8
v -0.4 1 0.8
v -0.3 0.9 0.8
v -0.3 1 0.8
v 0.3 0.9 0.8
v 0.3 1 0.8
v 0.4 0.9 0.8
v 0.4 1 0.8
v -0.2 0.8 0.7
v -0.2 0.9 0.7
v -0.1 0.8 0.7
v -0.1 0.9 0.7
v -0.1 1 0.7
v 0 0.9 0.7
v 0 1 0.7
v 0.1 0.9 0.7
v 0.1 1 0.7
v 0.2 0.8 0.7
v 0.2 0.9 0.7
v -0.4 0.4 0.6
v -0.4 0.5 0.6
v -0.3 0.4 0.6
v -0.3 0.5 0.6
v -0.4 0.5 0.4
v -0.4 0.6 0.4
v -0.3 0.5 0.4
v -0.3 0.6 0.4
v -0.2 1.3 0.3
v -0.2 1.4 0.3
v 0.2 1.3 0.3
v 0.2 1.4 0.3
v 0.3 0.5 0.3
v 0.3 0.6 0.3
v 0.4 0.5 0.3
v 0.4 0.6 0.3
v -0.3 0 0.2
v -0.3 0.1 0.2
v -0.3 0.7 0.2
v -0.3 1.3 0.2
v -0.1 1.1 0.2
v -0.1 1.2 0.2
v 0 1 0.2
v 0 1.1 0.2
v 0 1.2 0.2
v 0.1 0.3 0.2
v 0.1 0.4 0.2
v 0.1 0.5 0.2
v 0.1 1 0.2
v 0.1 1.1 0.2
v 0.1 1.2 0.2
v 0.2 1.1 0.2
v 0.2 1.2 0.2
v 0.3 0 0.2
v 0.3 0.1 0.2
v 0.3 0.3 0.2
v 0.3 0.4 0.2
v 0.3 0.5 0.2
v 0.3 0.7 0.2
v 0.3 1.3 0.2
v 0.4 0.4 0.2
v 0.4 0.5 0.2
v 0.1 0.4 0.1
v 0.1 0.5 0.1
v 0.3 0.4 0.1
v 0.3 0.5 0.1
v -0.3 0 0.9
v -0.2 0 0.9
v -0.3 0 0.8
v -0.2 0 0.8
v 0.3 0 0.8
v -0.3 0 0.2
v 0.3 0 0.2
v -0.1 0.4 0.9
v 0.1 0.4 0.9
v -0.4 0.4 0.8
v -0.3 0.4 0.8
v -0.1 0.4 0.8
v 0.1 0.4 0.8
v -0.4 0.4 0.6
v -0.3 0.4 0.6
v 0.3 0.4 0.3
v 0.4 0.4 0.3
v 0.1 0.4 0.2
v 0.3 0.4 0.2
v 0.4 0.4 0.2
v 0.1 0.4 0.1
v 0.3 0.4 0.1
v -0.2 0.5 0.9
v -0.1 0.5 0.9
v -0.2 0.5 0.8
v -0.1 0.5 0.8
v -0.4 0.5 0.6
v -0.3 0.5 0.6
v 0.3 0.5 0.5
v 0.4 0.5 0.5
v -0.4 0.5 0.4
v -0.3 0.5 0.4
v 0.3 0.5 0.3
v 0.4 0.5 0.3
v 0.1 0.6 0.9
v 0.2 0.6 0.9
v 0.1 0.6 0.8
v 0.2 0.6 0.8
v -0.4 0.9 0.9
v -0.3 0.9 0.9
v -0.2 0.9 0.9
v 0.2 0.9 0.9
v 0.3 0.9 0.9
v 0.4 0.9 0.9
v -0.4 0.9 0.8
v -0.3 0.9 0.8
v -0.2 0.9 0.8
v 0.2 0.9 0.8
v 0.3 0.9 0.8
v 0.4 0.9 0.8
v -0.2 0.9 0.7
v -0.1 0.9 0.7
v 0.1 0.9 0.7
v 0.2 0.9 0.7
v -0.2 0.9 0.6
v -0.1 0.9 0.6
v 0.1 0.9 0.6
v 0.2 0.9 0.6
v -0.2 1 0.9
v -0.1 1 0.9
v 0.1 1 0.9
v 0.2 1 0.9
v -0.2 1 0.8
v -0.1 1 0.8
v 0.1 1 0.8
v 0.2 1 0.8
v -0.1 1 0.7
v 0 1 0.7
v 0.1 1 0.7
v -0.1 1 0.6
v 0.1 1 0.6
v -0.3 0.5 0.9
v -0.2 0.5 0.9
v -0.4 0.5 0.8
v -0.3 0.5 0.8
v -0.2 0.5 0.8
v -0.4 0.5 0.6
v -0.3 0.5 0.6
v 0.3 0.5 0.3
v 0.4 0.5 0.3
v 0.1 0.5 0.2
v 0.3 0.5 0.2
v 0.4 0.5 0.2
v 0.1 0.5 0.1
v 0.3 0.5 0.1
v -0.4 0.6 0.6
v -0.3 0.6 0.6
v 0.3 0.6 0.5
v 0.4 0.6 0.5
v -0.4 0.6 0.4
v -0.3 0.6 0.4
v 0.3 0.6 0.3
v 0.4 0.6 0.3
v -0.2 0.8 0.9
v -0.1 0.8 0.9
v 0.1 0.8 0.9
v 0.2 0.8 0.9
v -0.2 0.8 0.8
v -0.1 0.8 0.8
v 0.1 0.8 0.8
v 0.2 0.8 0.8
v -0.2 0.8 0.7
v -0.1 0.8 0.7
v 0.2 0.8 0.7
v -0.2 0.8 0.6
v 0.2 0.8 0.6
v -0.1 0.9 0.9
v 0.1 0.9 0.9
v -0.1 0.9 0.8
v 0 0.9 0.8
v 0.1 0.9 0.8
v -0.4 1 0.9
v -0.3 1 0.9
v -0.2 1 0.9
v 0.2 1 0.9
v 0.3 1 0.9
v 0.4 1 0.9
v -0.4 1 0.8
v -0.3 1 0.8
v -0.2 1 0.8
v 0.2 1 0.8
v 0.3 1 0.8
v 0.4 1 0.8
v -0.2 1.1 0.9
v -0.1 1.1 0.9
v 0.1 1.1 0.9
v 0.2 1.1 0.9
v -0.2 1.1 0.8
v -0.1 1.1 0.8
v 0.1 1.1 0.8
v 0.2 1.1 0.8
v -0.3 1.3 0.8
v 0.2 1.3 0.8
v 0.3 1.3 0.8
v -0.2 1.3 0.7
v 0.2 1.3 0.7
v 0.3 1.3 0.7
v -0.2 1.3 0.3
v 0.2 1.3 0.3
v -0.3 1.3 0.2
v 0.3 1.3 0.2
v -0.2 1.4 0.7
v 0.2 1.4 0.7
v -0.1 1.4 0.6
v 0 1.4 0.6
v -0.1 1.4 0.5
v 0 1.4 0.5
v 0.1 1.4 0.5
v 0 1.4 0.4
v 0.1 1.4 0.4
v -0.2 1.4 0.3
v 0.2 1.4 0.3

# faces
f 3/6/1 2/6/1 1/6/1
f 4/6/1 2/6/1 3/6/1
f 6/6/1 5/6/1 4/6/1
f 7/6/1 5/6/1 6/6/1
f 10/8/1 9/8/1 8/8/1
f 11/8/1 9/8/1 10/8/1
f 15/3/1 13/3/1 12/3/1
f 16/10/1 14/10/1 13/10/1
f 16/3/1 13/3/1 15/3/1
f 17/10/1 14/10/1 16/10/1
f 18/7/1 16/7/1 15/7/1
f 18/6/1 17/6/1 16/6/1
f 19/6/1 17/6/1 18/6/1
f 20/7/1 18/7/1 15/7/1
f 21/10/1 19/10/1 18/10/1
f 21/7/1 18/7/1 20/7/1
f 22/10/1 19/10/1 21/10/1
f 23/6/1 17/6/1 19/6/1
f 23/10/1 19/10/1 22/10/1
f 24/6/1 17/6/1 23/6/1
f 25/5/1 21/5/1 20/5/1
f 26/5/1 21/5/1 25/5/1
f 27/10/1 24/10/1 23/10/1
f 27/10/1 23/10/1 22/10/1
f 28/6/1 17/6/1 24/6/1
f 28/10/1 24/10/1 27/10/1
f 29/6/1 27/6/1 26/6/1
f 30/6/1 17/6/1 28/6/1
f 31/6/1 29/6/1 26/6/1
f 31/6/1 30/6/1 29/6/1
f 32/6/1 30/6/1 31/6/1
f 33/6/1 17/6/1 30/6/1
f 33/6/1 30/6/1 32/6/1
f 34/2/1 32/2/1 31/2/1
f 34/5/1 33/5/1 32/5/1
f 35/5/1 33/5/1 34/5/1
f 36/2/1 34/2/1 31/2/1
f 36/2/1 35/2/1 34/2/1
f 37/2/1 35/2/1 36/2/1
f 38/5/1 33/5/1 35/5/1
f 38/2/1 35/2/1 37/2/1
f 39/2/1 37/2/1 36/2/1
f 40/5/1 38/5/1 37/5/1
f 40/2/1 37/2/1 39/2/1
f 41/5/1 40/5/1 39/5/1
f 42/5/1 33/5/1 38/5/1
f 42/5/1 40/5/1 41/5/1
f 42/5/1 38/5/1 40/5/1
f 45/11/1 44/11/1 43/11/1
f 46/11/1 44/11/1 45/11/1
f 47/4/1 46/4/1 45/4/1
f 48/4/1 47/4/1 45/4/1
f 49/4/1 47/4/1 48/4/1
f 52/8/1 51/8/1 50/8/1
f 53/8/1 51/8/1 52/8/1
f 56/5/1 55/5/1 54/5/1
f 57/5/1 55/5/1 56/5/1
f 60/11/1 59/11/1 58/11/1
f 61/11/1 59/11/1 60/11/1
f 64/4/1 63/4/1 62/4/1
f 65/4/1 63/4/1 64/4/1
f 68/5/1 67/5/1 66/5/1
f 69/5/1 67/5/1 68/5/1
f 74/1/1 71/1/1 70/1/1
f 75/1/1 71/1/1 74/1/1
f 76/8/1 73/8/1 72/8/1
f 77/8/1 73/8/1 76/8/1
f 82/2/1 79/2/1 78/2/1
f 83/2/1 79/2/1 82/2/1
f 84/11/1 81/11/1 80/11/1
f 85/11/1 81/11/1 84/11/1
f 86/3/2 87/3/2 88/3/2
f 88/3/2 87/3/2 89/3/2
f 88/7/2 89/7/2 90/7/2
f 90/7/2 89/7/2 91/7/2
f 90/5/2 91/5/2 92/5/2
f 92/5/2 91/5/2 93/5/2
f 94/2/2 95/2/2 98/2/2
f 98/2/2 95/2/2 99/2/2
f 96/11/2 97/11/2 100/11/2
f 100/11/2 97/11/2 101/11/2
f 102/1/2 103/1/2 106/1/2
f 106/1/2 103/1/2 107/1/2
f 104/8/2 105/8/2 108/8/2
f 108/8/2 105/8/2 109/8/2
f 110/11/2 111/11/2 112/11/2
f 112/11/2 111/11/2 113/11/2
f 112/4/2 113/4/2 114/4/2
f 114/4/2 113/4/2 115/4/2
f 116/4/2 117/4/2 118/4/2
f 118/4/2 117/4/2 119/4/2
f 120/4/2 121/4/2 122/4/2
f 120/4/2 122/4/2 123/4/2
f 123/4/2 122/4/2 124/4/2
f 125/8/2 126/8/2 127/8/2
f 127/8/2 126/8/2 128/8/2
f 129/5/2 130/5/2 131/5/2
f 131/5/2 130/5/2 132/5/2
f 133/10/2 134/10/2 135/10/2
f 135/10/2 134/10/2 136/10/2
f 135/6/2 136/6/2 137/6/2
f 137/6/2 136/6/2 138/6/2
f 135/6/2 137/6/2 139/6/2
f 137/10/2 138/10/2 140/10/2
f 139/6/2 137/6/2 140/6/2
f 140/10/2 138/10/2 141/10/2
f 139/10/2 140/10/2 143/10/2
f 135/6/2 139/6/2 143/6/2
f 143/10/2 140/10/2 144/10/2
f 141/5/2 142/5/2 145/5/2
f 145/5/2 142/5/2 146/5/2
f 135/6/2 143/6/2 147/6/2
f 144/6/2 145/6/2 148/6/2
f 135/6/2 147/6/2 149/6/2
f 147/6/2 148/6/2 149/6/2
f 149/6/2 148/6/2 150/6/2
f 150/6/2 148/6/2 151/6/2
f 148/6/2 145/6/2 152/6/2
f 151/6/2 148/6/2 152/6/2
f 152/6/2 145/6/2 153/6/2
f 150/5/2 151/5/2 154/5/2
f 149/2/2 150/2/2 154/2/2
f 154/5/2 151/5/2 155/5/2
f 151/2/2 152/2/2 156/2/2
f 155/5/2 151/5/2 156/5/2
f 152/5/2 153/5/2 157/5/2
f 156/2/2 152/2/2 157/2/2
f 154/2/2 155/2/2 158/2/2
f 149/2/2 154/2/2 158/2/2
f 158/2/2 155/2/2 159/2/2
f 155/5/2 156/5/2 160/5/2
f 159/2/2 155/2/2 160/2/2
f 156/5/2 157/5/2 160/5/2
f 158/2/2 159/2/2 161/2/2
f 159/5/2 160/5/2 162/5/2
f 161/2/2 159/2/2 162/2/2
f 161/5/2 162/5/2 163/5/2
f 162/5/2 160/5/2 164/5/2
f 163/5/2 162/5/2 164/5/2
f 163/9/2 164/9/2 165/9/2
f 164/5/2 160/5/2 166/5/2
f 165/9/2 164/9/2 166/9/2
f 160/5/2 157/5/2 167/5/2
f 166/5/2 160/5/2 167/5/2
f 157/5/2 153/5/2 167/5/2
f 168/6/2 169/6/2 171/6/2
f 171/6/2 169/6/2 172/6/2
f 170/6/2 171/6/2 173/6/2
f 173/6/2 171/6/2 174/6/2
f 175/8/2 176/8/2 177/8/2
f 177/8/2 176/8/2 178/8/2
f 185/8/3 180/8/3 179/8/3
f 186/8/3 180/8/3 185/8/3
f 187/3/3 182/3/3 181/3/3
f 188/7/3 183/7/3 182/7/3
f 188/3/3 182/3/3 187/3/3
f 189/5/3 184/5/3 183/5/3
f 189/7/3 183/7/3 188/7/3
f 190/5/3 184/5/3 189/5/3
f 193/11/3 186/11/3 185/11/3
f 194/11/3 186/11/3 193/11/3
f 197/11/3 191/11/3 190/11/3
f 198/4/3 192/4/3 191/4/3
f 198/11/3 191/11/3 197/11/3
f 199/4/3 192/4/3 198/4/3
f 201/8/3 195/8/3 194/8/3
f 202/8/3 195/8/3 201/8/3
f 203/11/3 197/11/3 196/11/3
f 203/8/3 198/8/3 197/8/3
f 204/4/3 200/4/3 199/4/3
f 204/8/3 198/8/3 203/8/3
f 204/4/3 199/4/3 198/4/3
f 205/11/3 203/11/3 196/11/3
f 206/4/3 204/4/3 203/4/3
f 206/11/3 203/11/3 205/11/3
f 207/4/3 200/4/3 204/4/3
f 207/4/3 204/4/3 206/4/3
f 208/4/3 200/4/3 207/4/3
f 209/4/3 200/4/3 208/4/3
f 212/4/3 208/4/3 207/4/3
f 213/4/3 208/4/3 212/4/3
f 215/8/3 211/8/3 210/8/3
f 216/8/3 211/8/3 215/8/3
f 217/11/3 215/11/3 214/11/3
f 218/11/3 215/11/3 217/11/3
f 219/8/3 218/8/3 217/8/3
f 220/8/3 218/8/3 219/8/3
f 223/6/3 222/6/3 221/6/3
f 224/6/3 222/6/3 223/6/3
f 232/6/3 225/6/3 224/6/3
f 233/6/3 225/6/3 232/6/3
f 234/2/3 226/2/3 225/2/3
f 234/6/3 225/6/3 233/6/3
f 235/2/3 226/2/3 234/2/3
f 236/2/3 226/2/3 235/2/3
f 237/5/3 228/5/3 227/5/3
f 238/5/3 228/5/3 237/5/3
f 239/6/3 231/6/3 230/6/3
f 240/10/3 232/10/3 231/10/3
f 240/6/3 231/6/3 239/6/3
f 241/10/3 232/10/3 240/10/3
f 242/2/3 236/2/3 235/2/3
f 243/1/3 237/1/3 236/1/3
f 243/2/3 236/2/3 242/2/3
f 244/1/3 237/1/3 243/1/3
f 245/5/3 228/5/3 238/5/3
f 246/6/3 239/6/3 230/6/3
f 246/10/3 240/10/3 239/10/3
f 247/10/3 240/10/3 246/10/3
f 248/5/3 245/5/3 244/5/3
f 248/5/3 244/5/3 243/5/3
f 249/5/3 245/5/3 248/5/3
f 250/10/3 240/10/3 247/10/3
f 250/6/3 247/6/3 246/6/3
f 251/10/3 240/10/3 250/10/3
f 255/2/3 249/2/3 248/2/3
f 256/5/3 245/5/3 249/5/3
f 256/2/3 249/2/3 255/2/3
f 257/5/3 228/5/3 245/5/3
f 257/5/3 245/5/3 256/5/3
f 258/5/3 228/5/3 257/5/3
f 259/6/3 251/6/3 250/6/3
f 259/10/3 252/10/3 251/10/3
f 260/6/3 253/6/3 252/6/3
f 260/10/3 252/10/3 259/10/3
f 261/6/3 253/6/3 260/6/3
f 263/5/3 255/5/3 254/5/3
f 264/1/3 256/1/3 255/1/3
f 264/5/3 255/5/3 263/5/3
f 265/1/3 256/1/3 264/1/3
f 266/9/3 258/9/3 257/9/3
f 267/5/3 228/5/3 258/5/3
f 267/9/3 258/9/3 266/9/3
f 268/5/3 228/5/3 267/5/3
f 269/10/3 230/10/3 229/10/3
f 270/6/3 262/6/3 261/6/3
f 270/10/3 230/10/3 269/10/3
f 270/6/3 259/6/3 250/6/3
f 270/6/3 246/6/3 230/6/3
f 270/6/3 250/6/3 246/6/3
f 270/6/3 260/6/3 259/6/3
f 270/6/3 261/6/3 260/6/3
f 271/2/3 263/2/3 262/2/3
f 271/6/3 262/6/3 270/6/3
f 271/2/3 264/2/3 263/2/3
f 272/2/3 264/2/3 271/2/3
f 273/5/3 266/5/3 265/5/3
f 274/9/3 267/9/3 266/9/3
f 274/5/3 266/5/3 273/5/3
f 274/9/3 268/9/3 267/9/3
f 275/9/3 268/9/3 274/9/3
f 278/5/3 277/5/3 276/5/3
f 279/5/3 277/5/3 278/5/3
f 282/6/3 281/6/3 280/6/3
f 283/6/3 281/6/3 282/6/3
f 286/5/3 285/5/3 284/5/3
f 288/5/3 286/5/3 284/5/3
f 288/5/3 287/5/3 286/5/3
f 289/5/3 287/5/3 288/5/3
f 290/5/3 288/5/3 284/5/3
f 291/5/3 288/5/3 290/5/3
f 294/6/3 293/6/3 292/6/3
f 295/6/3 293/6/3 294/6/3
f 298/6/3 297/6/3 296/6/3
f 299/6/3 297/6/3 298/6/3
f 300/8/4 301/8/4 302/8/4
f 302/8/4 301/8/4 303/8/4
f 304/8/4 305/8/4 306/8/4
f 306/8/4 305/8/4 307/8/4
f 308/2/4 309/2/4 310/2/4
f 310/2/4 309/2/4 311/2/4
f 310/5/4 311/5/4 313/5/4
f 311/5/4 312/5/4 313/5/4
f 313/5/4 312/5/4 314/5/4
f 310/5/4 313/5/4 315/5/4
f 313/2/4 314/2/4 315/2/4
f 315/2/4 314/2/4 316/2/4
f 310/5/4 315/5/4 317/5/4
f 317/5/4 315/5/4 318/5/4
f 319/6/4 320/6/4 321/6/4
f 321/6/4 320/6/4 322/6/4
f 323/6/4 324/6/4 325/6/4
f 325/6/4 324/6/4 326/6/4
f 327/5/4 328/5/4 329/5/4
f 329/5/4 328/5/4 330/5/4
f 331/6/4 332/6/4 333/6/4
f 333/6/4 332/6/4 334/6/4
f 337/5/4 338/5/4 339/5/4
f 339/5/4 338/5/4 340/5/4
f 337/5/4 339/5/4 341/5/4
f 339/2/4 340/2/4 342/2/4
f 341/5/4 339/5/4 342/5/4
f 340/5/4 338/5/4 343/5/4
f 342/2/4 340/2/4 343/2/4
f 336/6/4 337/6/4 344/6/4
f 344/6/4 337/6/4 345/6/4
f 345/6/4 337/6/4 346/6/4
f 341/2/4 342/2/4 347/2/4
f 337/5/4 341/5/4 347/5/4
f 342/5/4 343/5/4 348/5/4
f 347/2/4 342/2/4 348/2/4
f 343/5/4 338/5/4 349/5/4
f 348/5/4 343/5/4 349/5/4
f 347/5/4 348/5/4 350/5/4
f 348/2/4 349/2/4 350/2/4
f 349/5/4 338/5/4 351/5/4
f 350/2/4 349/2/4 351/2/4
f 335/10/4 336/10/4 352/10/4
f 336/6/4 344/6/4 353/6/4
f 352/10/4 336/10/4 353/10/4
f 344/10/4 345/10/4 354/10/4
f 353/6/4 344/6/4 354/6/4
f 354/10/4 345/10/4 355/10/4
f 346/6/4 337/6/4 356/6/4
f 347/5/4 350/5/4 357/5/4
f 337/5/4 347/5/4 357/5/4
f 356/6/4 337/6/4 357/6/4
f 350/5/4 351/5/4 357/5/4
f 351/5/4 338/5/4 358/5/4
f 357/5/4 351/5/4 358/5/4
f 355/6/4 356/6/4 359/6/4
f 359/6/4 356/6/4 360/6/4
f 361/5/4 362/5/4 363/5/4
f 363/5/4 362/5/4 364/5/4
f 367/3/5 366/3/5 365/3/5
f 368/3/5 366/3/5 367/3/5
f 370/10/5 368/10/5 367/10/5
f 370/10/5 369/10/5 368/10/5
f 371/10/5 369/10/5 370/10/5
f 376/11/5 373/11/5 372/11/5
f 377/11/5 373/11/5 376/11/5
f 378/6/5 375/6/5 374/6/5
f 379/6/5 375/6/5 378/6/5
f 383/6/5 381/6/5 380/6/5
f 384/6/5 381/6/5 383/6/5
f 385/5/5 383/5/5 382/5/5
f 386/5/5 383/5/5 385/5/5
f 389/11/5 388/11/5 387/11/5
f 390/11/5 388/11/5 389/11/5
f 395/6/5 392/6/5 391/6/5
f 396/6/5 392/6/5 395/6/5
f 397/6/5 394/6/5 393/6/5
f 398/6/5 394/6/5 397/6/5
f 401/4/5 400/4/5 399/4/5
f 402/4/5 400/4/5 401/4/5
f 409/8/5 404/8/5 403/8/5
f 410/11/5 405/11/5 404/11/5
f 410/8/5 404/8/5 409/8/5
f 411/11/5 405/11/5 410/11/5
f 412/11/5 407/11/5 406/11/5
f 413/8/5 408/8/5 407/8/5
f 413/11/5 407/11/5 412/11/5
f 414/8/5 408/8/5 413/8/5
f 419/1/5 416/1/5 415/1/5
f 420/1/5 416/1/5 419/1/5
f 421/1/5 418/1/5 417/1/5
f 422/1/5 418/1/5 421/1/5
f 427/8/5 424/8/5 423/8/5
f 428/8/5 424/8/5 427/8/5
f 429/8/5 426/8/5 425/8/5
f 430/8/5 426/8/5 429/8/5
f 434/5/5 432/5/5 431/5/5
f 434/5/5 433/5/5 432/5/5
f 435/5/5 433/5/5 434/5/5
f 436/5/6 437/5/6 439/5/6
f 439/5/6 437/5/6 440/5/6
f 438/6/6 439/6/6 441/6/6
f 441/6/6 439/6/6 442/6/6
f 443/6/6 444/6/6 446/6/6
f 446/6/6 444/6/6 447/6/6
f 445/5/6 446/5/6 448/5/6
f 448/5/6 446/5/6 449/5/6
f 450/6/6 451/6/6 454/6/6
f 454/6/6 451/6/6 455/6/6
f 452/6/6 453/6/6 456/6/6
f 456/6/6 453/6/6 457/6/6
f 458/4/6 459/4/6 462/4/6
f 462/4/6 459/4/6 463/4/6
f 460/4/6 461/4/6 464/4/6
f 464/4/6 461/4/6 465/4/6
f 466/5/6 467/5/6 469/5/6
f 467/5/6 468/5/6 469/5/6
f 469/5/6 468/5/6 470/5/6
f 471/4/6 472/4/6 473/4/6
f 473/4/6 472/4/6 474/4/6
f 474/4/6 472/4/6 475/4/6
f 476/8/6 477/8/6 482/8/6
f 477/11/6 478/11/6 483/11/6
f 482/8/6 477/8/6 483/8/6
f 483/11/6 478/11/6 484/11/6
f 479/11/6 480/11/6 485/11/6
f 480/8/6 481/8/6 486/8/6
f 485/11/6 480/11/6 486/11/6
f 486/8/6 481/8/6 487/8/6
f 488/8/6 489/8/6 492/8/6
f 492/8/6 489/8/6 493/8/6
f 490/8/6 491/8/6 494/8/6
f 494/8/6 491/8/6 495/8/6
f 496/5/6 497/5/6 499/5/6
f 497/9/6 498/9/6 500/9/6
f 499/5/6 497/5/6 500/5/6
f 500/9/6 498/9/6 501/9/6
f 496/5/6 499/5/6 502/5/6
f 500/5/6 501/5/6 503/5/6
f 496/5/6 502/5/6 504/5/6
f 502/5/6 503/5/6 504/5/6
f 503/5/6 501/5/6 505/5/6
f 504/5/6 503/5/6 505/5/6
f 506/5/6 507/5/6 508/5/6
f 508/5/6 507/5/6 509/5/6
f 506/5/6 508/5/6 510/5/6
f 508/9/6 509/9/6 510/9/6
f 509/5/6 507/5/6 511/5/6
f 510/9/6 509/9/6 511/9/6
f 511/5/6 507/5/6 512/5/6
f 510/5/6 511/5/6 513/5/6
f 511/9/6 512/9/6 513/9/6
f 512/5/6 507/5/6 514/5/6
f 513/9/6 512/9/6 514/9/6
f 506/5/6 510/5/6 515/5/6
f 510/5/6 513/5/6 515/5/6
f 513/5/6 514/5/6 515/5/6
f 514/5/6 507/5/6 516/5/6
f 515/5/6 514/5/6 516/5/6
